<?xml version="1.0" encoding="utf-8"?>
<!--Generator: Adobe Illustrator 23.0.3, SVG Export Plug-In . SVG Version: 6.00 Build 0)-->
<svg version="1.1" xmlns="http://www.w3.org/2000/svg" x="0px" y="0px" viewBox="0 0 234 84" style="enable-background:new 0 0 234 84" xml:space="preserve">
    <style type="text/css">
        .st3{fill:#231f20}
    </style>
    <g id="Layer_1" style="display:none">
        <title>
            RWS_logos__
        </title>
    </g>
    <g id="Layer_2">
        <g id="logo">
            <rect width="44" height="77" style="fill:#154273"/>
            <path d="M22.8,57H22v-2.1h0.8V57z M26.2,47.7h-0.8v-2.1h0.8V47.7z M12.1,44c-0.1,0-0.4,0-0.4,0.1s0.2,0,0.4,0.1
			c0.6,0.1,0.9,0.4,1.3,0.4c0.3,0,0.6-0.2,0.7-0.5c0-0.1,0-0.2,0-0.3c0-0.1-0.1-0.1-0.1,0c-0.1,0.3-0.4,0.4-0.7,0.4
			C12.8,44.1,12.7,44,12.1,44z M7.8,46.1c0.1,0.1,0.8,1-0.3,1.4c-0.1,0-0.1,0.1,0,0.1c0.4,0.2,0.9,0.1,1.2-0.3
			c0.3,0.5,0.2,1.1-0.2,1.5c0.3,0.3,0.7,0.5,1.1,0.6c0.3-0.1,0.5-0.4,0.7-0.7c0.1,0.3,0.1,0.5,0,0.8c1.7,0.2,2.3-1.2,3.6-0.9
			c0,0,0.1,0,0.1-0.1c0-1.3-0.9-2.4-2.1-2.6c-1.6-0.3-1.2-1-1.2-1c0.4,0,0.7,0.1,1.1,0.3c0.1-0.1,0-0.3-0.1-0.4
			c0.1-0.1,0.1-0.2,0.1-0.3c-0.3,0-0.7,0-0.9-0.2c-0.1-0.5,0.2-1.1,1.3-0.4c0.2-0.2,0.3-0.4,0.3-0.6c0.1-0.1,0.1-0.1,0.1-0.2
			c0-0.2-0.9-0.7-1.1-0.8c-0.1-0.3-0.4-0.7-1.5-0.5c-0.5,0.1-0.9-0.1-0.7-0.4c0,0-0.1-0.1-0.1,0s-0.3,0.4,0.2,0.7
			c0.3,0.2,0.5,0.5,0.5,0.8c0,0.1-0.1,0.1-0.1,0c-0.3-0.7-1.1-1-1.7-0.7c-0.1,0-0.2,0.1-0.3,0.1c0.1,0.4,0.4,0.7,0.8,0.7
			c0.2,0,0.3-0.2,0.4-0.3c0-0.1,0.1-0.1,0.1,0c0,0.3-0.2,0.6-0.5,0.7c-0.2,0-0.4,0-0.5-0.2c-0.4,0.5-0.6,1.2-0.3,1.8
			c0.1,0.5-0.1,1-0.6,0.8H6.8c0,0.3,0.2,0.6,0.5,0.7C7.5,46.3,7.7,46.2,7.8,46.1z M11.4,42.8c-0.3,0.3-0.8,0.3-0.9-0.3
			C11.1,42.5,11.4,42.6,11.4,42.8z M30.8,44.1c-0.3,0-0.6-0.1-0.7-0.4c0-0.1-0.1-0.1-0.1,0c-0.1,0.3,0,0.7,0.3,0.8
			c0.1,0,0.2,0,0.3,0c0.4,0,0.7-0.3,1.3-0.4c0.3,0,0.5,0,0.5-0.1S32,44,31.9,44C31.3,44,31.2,44.1,30.8,44.1z M37.1,45.7
			C37.1,45.6,37.1,45.7,37.1,45.7c-0.5,0.2-0.7-0.3-0.6-0.8c0.2-0.6,0.1-1.3-0.3-1.8c-0.2,0.2-0.6,0.2-0.8,0
			c-0.1-0.1-0.2-0.3-0.2-0.5c0-0.1,0.1-0.1,0.1,0c0,0.2,0.2,0.3,0.3,0.3c0.4,0,0.7-0.3,0.8-0.7c-0.6-0.4-1.4-0.3-1.9,0.3
			c-0.1,0.1-0.1,0.2-0.1,0.3c0,0.1-0.2,0.1-0.1,0c0-0.3,0.2-0.6,0.5-0.8c0.4-0.2,0.3-0.5,0.2-0.7s-0.1,0-0.1,0
			c0.2,0.3-0.2,0.4-0.7,0.4c-1-0.1-1.4,0.2-1.5,0.5c-0.2,0.1-1.1,0.6-1.1,0.8c0,0.1,0.1,0.2,0.1,0.2c0,0.2,0.1,0.5,0.3,0.6
			c1.1-0.7,1.4,0,1.3,0.4c-0.3,0.2-0.7,0.2-1,0.2c0,0.1,0,0.2,0.1,0.3c-0.1,0.1-0.1,0.3,0,0.4c0.3-0.2,0.7-0.3,1.1-0.3
			c0,0,0.4,0.7-1.2,1c-1.2,0.3-2.1,1.4-2.1,2.6v0.1c1.3-0.2,1.9,1.1,3.6,0.9c-0.1-0.3-0.1-0.5,0-0.8c0.1,0.3,0.4,0.6,0.7,0.7
			c0.4-0.1,0.8-0.3,1.1-0.6c-0.4-0.4-0.5-1-0.2-1.5c0.3,0.4,0.8,0.5,1.2,0.3c0.1,0,0.1-0.1,0-0.1c-1.1-0.4-0.4-1.3-0.3-1.4
			c0.2,0.2,0.6,0.2,0.8,0C37.1,46,37.1,45.9,37.1,45.7z M33.5,42.5c-0.1,0.6-0.6,0.6-0.9,0.3C32.6,42.6,32.9,42.5,33.5,42.5z
			 M21.7,33.2c0,0.1,0,0.2,0.1,0.3c0.1,0.1,0.1,0.2,0,0.3s-0.1,0.1-0.3,0c-0.1-0.1-0.2-0.1-0.3-0.1c-0.2,0-0.3,0.1-0.4,0.3
			c0,0,0,0,0,0c0,0.1,0.1,0.3,0.4,0.3c0.1,0,0.2,0,0.3-0.1c0.1-0.1,0.2-0.1,0.3,0c0,0.3,0,0.6-0.1,0.9c-0.3,0-0.5,0.3-0.6,0.6
			c0,0.5,0.5,0.8,0.8,0.9c0.3-0.2,0.8-0.4,0.8-0.9c0-0.3-0.3-0.5-0.6-0.6c-0.1-0.3-0.1-0.6-0.1-0.9c0,0,0.1-0.1,0.3,0
			c0.1,0.1,0.2,0.1,0.3,0.1c0.2,0,0.3-0.1,0.4-0.3c0,0,0,0,0,0c0-0.1-0.1-0.3-0.4-0.3c-0.1,0-0.2,0-0.3,0.1c-0.1,0.1-0.2,0.1-0.3,0
			s-0.1-0.1,0-0.3c0.1-0.1,0.1-0.2,0.1-0.3c0-0.2-0.1-0.3-0.3-0.4c0,0,0,0,0,0C21.8,32.8,21.7,33,21.7,33.2z M22,36.7
			c-0.3,0-0.6,0.3-0.6,0.6s0.3,0.6,0.6,0.6s0.6-0.3,0.6-0.6S22.3,36.7,22,36.7L22,36.7z M22,42.4c1.2,0,2.5,0.1,3.7,0.5
			c0-1.2,0-1.8,0.7-1.8c-0.4-1,1.2-1.4,1.2-2.7c0-0.8-0.6-1-0.8-1c-0.5,0-0.5,0.3-0.9,0.3c-0.1,0-0.1,0-0.1,0s0.1,0.4,0.3,0.4
			s0.3-0.3,0.5-0.3s0.2,0.1,0.2,0.4c-0.1,0.7-0.4,1.3-0.8,1.7c-0.1-0.1-0.2-0.2-0.4-0.2c-0.3,0-0.5,0.3-0.5,0.6c0,0.1,0,0.2,0.1,0.3
			c-0.1,0.1-0.2,0.1-0.4,0.1c-0.2,0-0.5-0.2-0.5-0.4c0,0,0-0.1,0-0.1c0-0.9,1.3-1.8,1.3-3c0-0.6-0.4-1.1-1.1-1.1c0,0-0.1,0-0.1,0
			c-0.9,0-0.7,0.8-1.4,0.8H23c0,0,0.1,0.5,0.5,0.5s0.5-0.7,0.9-0.7c0.1,0,0.3,0.1,0.3,0.6c-0.1,0.5-0.2,1.1-0.5,1.5
			c-0.1-0.1-0.2-0.2-0.4-0.2c-0.3,0-0.6,0.3-0.5,0.7c0,0.2,0.1,0.4,0.2,0.6c-0.2,0.2-0.4,0.4-0.6,0.4c-0.5,0-0.7-0.3-0.7-0.6
			s0.6-0.5,0.6-1c0-0.3-0.2-0.5-0.4-0.6c0,0,0,0,0,0c-0.1,0-0.3,0.1-0.4,0.2c-0.1-0.1-0.2-0.2-0.4-0.2c-0.3,0-0.5,0.3-0.5,0.6
			c0,0,0,0,0,0c0,0.5,0.6,0.7,0.6,1s-0.2,0.6-0.7,0.6c-0.3,0-0.5-0.2-0.6-0.4c0.2-0.2,0.3-0.4,0.2-0.6c0-0.3-0.2-0.6-0.5-0.7
			c-0.1,0-0.3,0.1-0.4,0.2c-0.2-0.5-0.4-1-0.5-1.5c0-0.5,0.2-0.6,0.3-0.6c0.4,0,0.5,0.7,0.9,0.7s0.5-0.4,0.5-0.5s0,0-0.1,0
			c-0.7,0-0.6-0.8-1.4-0.8c-0.6,0-1.1,0.4-1.2,1c0,0,0,0.1,0,0.1c0,1.2,1.3,2,1.3,3c0,0.2-0.1,0.5-0.4,0.5c0,0-0.1,0-0.1,0
			c-0.1,0-0.3-0.1-0.4-0.1c0-0.1,0.1-0.2,0.1-0.3c0-0.3-0.2-0.6-0.5-0.6c-0.2,0-0.3,0.1-0.4,0.2c-0.4-0.4-0.7-1-0.8-1.6
			c0-0.3,0.1-0.4,0.2-0.4s0.2,0.3,0.5,0.3s0.3-0.3,0.3-0.4s-0.1,0-0.1,0c-0.5,0-0.4-0.3-0.9-0.3c-0.2,0-0.8,0.1-0.8,1
			c0,1.3,1.6,1.7,1.2,2.7c0.7-0.1,0.7,0.6,0.7,1.8C19.5,42.5,20.8,42.3,22,42.4z M17.7,44.1c-0.6,0.1-1.1,0.3-1.3,0.3
			c0-0.3,0.1-0.5,0.4-0.6 M16.8,43.8c-0.6-0.4-0.9,0.3-0.9,0.4c-0.2,0-0.5,0-0.5,0.3c0,0.8-1.9,1.3-2.3,1.3c0.5,0.3,0.9,0.7,1.1,1.2
			c0.4-0.4,0.8-0.7,1.3-1c0.1,0,0.2,0.2,0.2,0.3 M15.8,46.3c0.3-0.4,0.1-0.5,0.1-0.7c0-0.2,0.1-0.4,0.3-0.4c0.1,0,0.1,0,0.2,0v5.4
			h-0.2c-0.1,0-0.9-0.7-1.8-1.3s-1.4-0.2-2.4,0.3c-0.9,0.4-1.9,0.5-2.7,0.1C8,50.6,7.6,53,7.6,53c-0.3,0.1-0.7,0.2-1,0.2
			c-0.9,0-1.1-0.5-1.1-0.9c0-1.4,1.7-2,1.7-3.3c0-0.9-0.7-1.7-1.6-1.7c-0.1,0-0.1,0-0.2,0H4c-0.4,0-0.7-0.2-0.9-0.6
			c0-0.1-0.1,0-0.1,0S3,47,3,47.4c0,0.5,0.3,0.8,0.7,0.9c0.1,0,0.1,0,0.2,0c0.2,0,0.4,0,0.6-0.1c0.1,0,0.1,0,0.1,0
			c-0.2,0.3-0.3,0.7-0.2,1h0.1c0.2-0.6,0.8-1,1.4-1c0.5,0,0.9,0.3,0.9,0.8c0,0.1,0,0.2,0,0.2c0,1.1-2,1.9-2,3.4s1.6,1.9,2.6,1.6
			c-0.1,1.5-1.8,2.1-1.9,1c0,0,0-0.1-0.1,0c-0.2,0.5-0.1,1,0.6,1.2c0.1,0,0,0,0,0.1c-0.7,0.5-0.3,2.2-0.3,2.7
			c0.1,0.7-0.7,0.6-0.7,0.6s-0.1,0,0,0.1c0.3,0.3,0.8,0.3,1.1,0c0,0,0,0,0,0c0.5,0.2,0.2,0.6-0.1,0.8c-0.1,0-0.1,0.1,0,0.1
			s0.8,0.1,0.9-0.5c0.2,0.3,0.6,0.3,0.9,0.2c0.1-0.1,0.8-0.3,0.9,0.5c0,0.1,0,0,0.1,0c0.3-0.2,0.3-0.6,0-0.9
			c-0.1-0.1-0.2-0.2-0.4-0.2c0.2-0.2,0.5-0.2,0.7,0c0,0,0.1,0.1,0.1,0.1h0.1c0-0.8-0.6-0.9-1.1-0.5c0-0.1-0.2-0.5,0.5-0.5
			c0,0,0.1,0,0-0.1c-0.2-0.3-0.6-0.3-0.9-0.1c0,0-0.1,0.1-0.1,0.1c-0.2,0.3-0.8,0.2-0.8,0.2c0.2-2.9,2.7-1.9,3.1-3.3
			c0-0.1,0.1,0,0.1,0c0.1,0.3,1,0.4,1.1-0.3c0,0,0-0.1,0,0c-0.7,0.7-2.4-1.6-0.1-3.4c1.2-1.1,3-1.2,4.3-0.2c0,0.2-0.1,0.3-0.2,0.3
			s0,0,0,0.1c0.2,0.1,0.4,0,0.6-0.1c0.4,0.3,0.1,0.7-0.1,0.8s0,0,0,0.1c0.3,0,0.6-0.2,0.7-0.5h0.1v1.6c0,2.3,2.7,2.7,5.7,4.6
			c3-2,5.7-2.3,5.7-4.6v-1.7h0.1c0.1,0.3,0.4,0.6,0.7,0.5c0,0,0,0,0-0.1s-0.5-0.5-0.1-0.8c0.1,0.2,0.4,0.2,0.6,0.1c0,0,0,0,0-0.1
			c-0.1,0-0.2-0.2-0.2-0.3c0,0,0,0,0,0c1.3-1,3.1-1,4.3,0.2c2.3,1.9,0.6,4.2-0.1,3.4l0,0c0.2,0.7,1,0.6,1.1,0.3c0,0,0,0,0.1,0
			c0.3,1.4,2.9,0.4,3.1,3.3c0,0-0.6,0.1-0.8-0.2c-0.2-0.3-0.6-0.4-0.9-0.2c0,0-0.1,0.1-0.1,0.1 M35.3,58.5c0.7,0,0.5,0.5,0.5,0.5
			c-0.4-0.4-1.1-0.3-1.1,0.5c0,0.1,0,0.1,0,0c0.2-0.2,0.5-0.3,0.7-0.2c0,0,0.1,0,0.1,0.1c-0.4,0-0.6,0.4-0.6,0.7
			c0,0.2,0.1,0.3,0.2,0.4c0,0,0,0.1,0.1,0c0.1-0.8,0.8-0.5,0.9-0.5c0.3,0.1,0.7,0.1,0.9-0.2c0.1,0.6,0.9,0.5,0.9,0.5s0.1,0,0-0.1
			c-0.3-0.2-0.6-0.6-0.1-0.8c0.3,0.3,0.8,0.3,1.1,0c0,0,0,0,0,0c0-0.1,0-0.1,0-0.1s-0.8,0.1-0.7-0.6c0-0.5,0.4-2.2-0.3-2.6
			c0,0-0.1,0,0-0.1c0.7-0.2,0.8-0.6,0.5-1.2c0-0.1-0.1-0.1-0.1,0c0,1.1-1.8,0.6-1.9-1c1,0.2,2.6-0.1,2.6-1.6s-2-2.3-2-3.4
			c-0.1-0.5,0.2-0.9,0.7-1c0.1,0,0.2,0,0.2,0c0.7,0,1.3,0.5,1.4,1.1c0,0,0,0,0.1,0c0.1-0.3,0-0.7-0.2-1c0,0,0-0.1,0.1,0
			c0.2,0.1,0.4,0.1,0.6,0.1c0.4,0.1,0.9-0.3,0.9-0.7c0-0.1,0-0.1,0-0.2c0-0.3-0.1-0.5-0.1-0.6s0-0.1-0.1,0c-0.1,0.4-0.5,0.6-0.9,0.6
			h-1.4c-0.9-0.1-1.7,0.6-1.8,1.5c0,0.1,0,0.1,0,0.2c0,1.4,1.7,2,1.7,3.3c0,0.3-0.2,0.9-1.1,0.9c-0.3,0-0.7-0.1-1-0.2
			c0,0-0.4-2.4-1.6-3.3c-0.9,0.4-1.9,0.4-2.7-0.1c-1-0.6-1.5-0.9-2.4-0.3s-1.7,1.3-1.8,1.3h-0.2v-5.5c0.2,0,0.4,0.1,0.4,0.3
			c0,0,0,0.1,0,0.1c0,0.1-0.2,0.2,0.1,0.7 M28.2,46.3c0-0.1,0.1-0.3,0.2-0.3c0.5,0.3,1,0.6,1.3,1c0.2-0.5,0.6-1,1.1-1.2
			c-0.4-0.1-2.3-0.5-2.3-1.3c0-0.3-0.3-0.3-0.5-0.3c0,0-0.3-0.8-0.9-0.4 M27.2,43.8c0.2,0.1,0.4,0.3,0.4,0.6
			c-1.8-0.5-3.7-0.8-5.6-0.8c-1.2,0-2.4,0.1-3.5,0.3v1.9h-0.7v-1.7l0,0 M12.6,63.4c-0.2-0.1-0.4-0.3-0.3-0.5v-1.2
			c-1-0.3-2-0.5-3.1-0.5c-1.5,0-2,0.3-2,0.5L6.8,64c0,0,0.6-0.6,2.8-0.4c2.7,0.2,5.4,1.7,5.4,0.1v-1C12.9,62.7,12.6,63.3,12.6,63.4z
			 M29,62.7v1c0,1.7,2.8,0.1,5.4-0.1c2.2-0.1,2.8,0.4,2.8,0.4l-0.4-2.2c0-0.1-0.5-0.5-2-0.5c-1,0-2.1,0.1-3.1,0.5V63
			c0,0.2-0.1,0.4-0.3,0.5C31.4,63.3,31.1,62.7,29,62.7z M22,61.7c4.3,0,8.6,0.2,9.2,0.9h0.1v-2.3c0-0.7-4.5-1-9.2-1s-9.2,0.4-9.2,1
			v2.3c0,0,0,0.1,0.1,0C13.4,61.9,17.7,61.7,22,61.7L22,61.7z M18.2,51l-0.4-0.1l0,0l-0.5-0.2h0.5l0,0l-0.4-0.4l0.5,0.2l0,0L17.5,50
			l0.5,0.3l0,0l-0.2-0.6l0.4,0.4l0,0l-0.1-0.6l0.3,0.5l0,0v-0.5l0.2,0.5c0,0,0,0,0.1,0l0.2-0.4L19,50h-0.1l-0.1,0.7
			c0.6-0.2,1.5-1.3,2.1-1.3s1,0.9,2.4,0.4c0.3,0.5,0.5,1,0.6,1.6c0.5,0.5,1.3,0.3,1.3-0.2c0-0.7-0.8-0.8-0.8-1.6
			c0-0.4,0.4-0.8,0.8-0.8c0,0,0,0,0.1,0c0.3,0,0.8,0.1,1.1,0.1c0.2,0,0.4-0.1,0.4-0.3c0-0.1,0.1,0,0.1,0s0,0.2,0,0.3
			c0,0.5-0.7,0.5-0.8,0.5s-0.1,0,0,0s0.1,0.4,0,0.5l0,0c-0.1-0.4-0.4-0.7-0.8-0.7c-0.2,0-0.4,0.1-0.4,0.3c0,0,0,0,0,0
			c0,0.4,0.8,0.8,0.8,1.7s-0.9,1.1-1.8,0.9c0,0.8,1.3,1.4,1.3,0.8l0,0c0.1,0.1,0.1,0.3,0,0.5c0,0-0.1,0.1-0.2,0.1
			c0.2,0.1,0.3,0.5,0.3,0.8s0.5,0.2,0.5,0.2s0,0,0,0c-0.1,0.2-0.3,0.4-0.6,0.3c0,0,0,0,0,0c-0.2,0.2,0,0.3,0.2,0.4l0,0
			c0,0-0.5,0.2-0.6-0.1c-0.1,0.2-0.2,0.3-0.4,0.3c-0.2,0-0.3,0.2-0.2,0.4l0,0c-0.4-0.3-0.2-0.6,0-0.6c-0.1-0.1-0.3,0-0.4,0.1
			c0,0,0,0.1,0,0.1l0,0c-0.2-0.5,0.2-0.6,0.5-0.5c-0.1-0.2-0.3-0.3-0.5-0.2l0,0c0.1-0.2,0.3-0.3,0.4-0.2c0,0,0.1,0,0.1,0.1
			c0.2,0.1,0.5,0,0.5-0.1c-0.6-1.1-1.7-0.2-1.9-1.1l0,0c-0.1,0.2-0.5,0.2-0.6-0.2l0,0c0,0,0.2,0.1,0.4-0.2c0.1-0.2,0.2-0.4,0.1-0.6
			c-0.1-1-0.8-1.7-1.8-1.8c-0.7,0-1.4,0.2-2,0.7l0.5,0.1c0,0.4-0.4,0.7-0.8,0.7c-0.1,0-0.1,0-0.2,0l0.1-0.6c-0.2,0-0.3,0.1-0.4,0.2
			l0,0c-0.1-0.2,0.1-0.5,0.3-0.5l0,0c-0.2,0-0.3,0.1-0.4,0.2l0,0C18.2,51.1,18.2,51.1,18.2,51z M19.7,54.9c-0.2,0.2-0.4,0-0.6,0
			c-0.1,0-0.3,0.1-0.3,0.3c0,0,0,0,0,0l0,0c-0.1-0.1-0.1-0.4,0-0.5c0.1-0.1,0.1-0.1,0.2-0.1c-0.1-0.1-0.3-0.1-0.4,0c0,0,0,0,0,0l0,0
			c0-0.5,0.4-0.5,0.6-0.3c0-0.2-0.1-0.3-0.3-0.3l0,0c0.1-0.1,0.1-0.1,0.2-0.1c0.2,0,0.3,0.3,0.5,0.3s0.6-0.3,0.6-0.4
			c-0.1-0.3-0.2-0.7-0.2-1l0,0c0,0-0.4,0.1-0.4-0.3l0,0c0.1,0.2,0.4,0,0.5-0.2s0.8-1,1.6-1c0.2,0,0.4,0.1,0.6,0.2
			c-0.3,0.3,0,0.7,0.2,0.7l0,0c-1.1,0.4-1.6,0.6-1.6,1.5c0,0.5,0.2,0.8,0.5,0.7l0,0c-0.1,0.1-0.2,0.2-0.3,0.2
			c-0.2,0-0.3-0.1-0.4-0.1S20,54.7,20,54.9c0,0.1,0.1,0.2,0.2,0.3l0,0C20,55.3,19.8,55.2,19.7,54.9C19.7,55,19.7,54.9,19.7,54.9
			L19.7,54.9z M22.6,45.9c-0.4,0-0.6,0.1-0.6,0.2C22.2,46.2,22.4,46.2,22.6,45.9L22.6,45.9z M21.3,46.8c0.2,0,0.4,0,0.5,0
			 M21.9,46.9c-0.5,0.1-0.5,0.3-0.9,0.3c-0.2,0-0.4-0.2-0.4-0.4c0,0,0-0.1,0-0.1l0,0c0,0,0.3,0.2,0.7,0.1L21.9,46.9z M14.7,58
			c0.3,0.4,0.7,0,1.1,0c0.2,0,0.5,0.1,0.5,0.5l0,0c0.2-0.3,0.2-0.7-0.1-0.9c-0.1-0.1-0.2-0.1-0.2-0.1c0.2-0.2,0.6-0.2,0.8,0.1
			c0,0,0,0,0,0l0,0c0-0.8-0.6-0.9-1.1-0.5c-0.1-0.3,0.2-0.5,0.5-0.5l0,0c-0.6-0.6-1,0.2-1.1,0.3c-0.2,0.3-1-0.3-1.3-0.6
			c0.4-0.4,0.6-0.9,0.7-1.4v-0.1l0,0c0.1,0,0.2,0.1,0.3,0.1c0.2,0,0.5,0,0.5-0.6l0,0c-0.1,0.1-0.1,0.1-0.2,0.2
			c-0.6,0-1.8-1.9-3.2-1.9c-0.5,0-1,0.3-1.4,0.6c0.1,0.1,0.2,0.3,0.2,0.5c0,0.2-0.2,0.4-0.4,0.4l0,0c0.8,0.3,1.6,0.6,2.3,1
			c0.4,0.3,0.3,0.9,0.1,1.7s-0.6,0.7-0.8,0.6s0,0,0,0c0.1,0.2,0.4,0.3,0.6,0.3c0.4,0,0.5-0.2,0.7-0.2s1,0.5,1,0.8
			c0,0.2-0.2,0.4-0.4,0.5l0,0C13.8,58.5,14.6,58.6,14.7,58z M30.2,58.5L30.2,58.5c-0.2-0.1-0.3-0.3-0.4-0.5c0-0.3,0.7-0.8,1-0.8
			s0.3,0.2,0.7,0.2c0.2,0,0.5-0.1,0.6-0.3l0,0c0,0-0.6,0.1-0.8-0.6s-0.3-1.3,0.1-1.7c0.7-0.4,1.5-0.7,2.3-1l0,0
			c-0.2,0-0.4-0.2-0.4-0.4c0-0.2,0-0.4,0.2-0.5c-0.4-0.4-0.9-0.6-1.4-0.6c-1.4,0-2.6,1.9-3.2,1.9c-0.1,0-0.2-0.1-0.2-0.2l0,0
			c0,0.6,0.3,0.6,0.5,0.6c0.1,0,0.2,0,0.3-0.1l0,0v0.1c0.1,0.5,0.3,1,0.7,1.4c-0.3,0.3-1.1,0.9-1.3,0.6c-0.1-0.1-0.5-0.9-1.1-0.3
			l0,0c0.3,0,0.6,0.2,0.5,0.5c-0.5-0.4-1.1-0.3-1.1,0.5l0,0c0.2-0.3,0.6-0.3,0.8-0.1c0,0,0,0,0,0c-0.3,0-0.6,0.3-0.6,0.7
			c0,0.1,0.1,0.3,0.2,0.4l0,0c0-0.4,0.3-0.5,0.5-0.5c0.4,0,0.8,0.4,1.1,0C29.4,58.6,30,58.5,30.2,58.5L30.2,58.5z M18.9,47.5
			c0,0.1-0.2,0-0.2,0s0,0,0,0s0.2,0.3,0.4,0.3c0.1,0,0.2,0,0.3-0.1c0,0,0.8,0.3,1.2,0.4c-0.2,0.2-0.3,0.5-0.3,0.7
			c-0.3-0.2-1.6-0.9-1.6-0.9l-0.4,0.6c-0.1,0.1-0.4-0.2-0.3-0.2l0.3-0.4c-0.1-0.1-0.4,0-0.4,0s0,0,0,0c0.1-0.2,0.4-0.3,0.6-0.2
			c0-0.2-0.4-0.2-0.4-0.1s0,0,0,0c0.2-0.2,0.5-0.3,0.7-0.1l0.1-0.2l-0.3-0.3l0.2-0.2l0.2,0.3l1.5-2.1c0.1-0.1,0.3-0.1,0.5-0.2
			c0,0.2,0,0.3,0,0.5l-1.5,2.1l0.3,0.1l-0.2,0.2L19,47.3L18.9,47.5z M24.2,47.2c0,0.2,0.1,0.5,0.4,0.4l0,0c0,0.2-0.4,0.4-0.6,0.2
			c-0.2,0.3-0.1,0.6,0.2,0.8c0,0,0,0,0.1,0l0,0c-0.2,0.1-0.5,0.1-0.6-0.1c0,0,0,0,0-0.1c-0.2,0.2-0.3,0.6-0.1,0.8
			c-0.4,0.3-1,0.3-1.4,0.1c-0.4-0.3-0.9-0.4-1.4-0.5c0.1-0.8,0.5-1,1.2-1.2c0.6-0.1,0.7-0.4,0.6-0.6c-0.2,0-0.4,0-0.6,0.1
			c0-0.1,0-0.2,0-0.2c0-0.1-0.1-0.1-0.1-0.2c0.4,0,0.5-0.1,0.5-0.1c0.1-0.4-0.4-0.5-0.7-0.2c-0.1-0.1-0.1-0.2-0.1-0.3
			c0,0-0.1-0.1-0.1-0.1c0-0.1,0.5-0.4,0.6-0.4s0.2-0.3,0.8-0.3c0-0.3,0-0.5-0.1-0.8c0,0,0-0.1,0.1,0s0.4,0.5,0.5,0.6
			s0.6-0.3,0.6-0.3c0,0.2,0.1,0.5,0.1,0.7c0.1,0.1,0.5,0,0.7,0.1s0,0.1,0,0.1c-0.3,0.1-0.5,0.2-0.7,0.4
			C24.2,46.4,24.2,46.8,24.2,47.2L24.2,47.2z" style="fill:#fff"/>
        </g>
        <g id="text_NL">
            <path class="st3" d="M58,38.5c-0.4-0.3-0.9-0.5-1.3-0.5h-0.3h-0.3v3.8h0.5c0.3,0,0.5,0,0.8-0.1c0.2-0.1,0.4-0.2,0.6-0.4
			c0.2-0.2,0.3-0.4,0.4-0.7c0.1-0.3,0.2-0.6,0.2-0.9C58.6,39.2,58.4,38.7,58,38.5L58,38.5z M60.5,46.2c-0.2,0.1-0.4,0.1-0.6,0.1
			c-0.1,0-0.3,0-0.4,0c-0.1,0-0.2-0.1-0.4-0.2c-0.1-0.1-0.2-0.2-0.3-0.3c-0.1-0.1-0.3-0.3-0.4-0.5l-1.8-2.8h-0.6v2.9l0.9,0.2V46
			c-0.2,0.1-0.5,0.1-0.7,0.2c-0.3,0-0.6,0.1-0.8,0.1h-0.7c-0.2,0-0.4-0.1-0.6-0.1v-0.3c0.2-0.1,0.4-0.2,0.6-0.3
			c0.1-0.2,0.2-0.5,0.2-0.7V38L54,37.8v-0.3l0.6-0.1l0.6-0.1H56h0.8c0.8-0.1,1.6,0.1,2.3,0.6c0.5,0.4,0.8,1.1,0.8,1.7
			c0,0.3,0,0.6-0.1,0.9c-0.1,0.3-0.2,0.5-0.4,0.7c-0.2,0.2-0.4,0.4-0.6,0.6c-0.3,0.2-0.5,0.3-0.8,0.4l1.9,2.6
			c0.2,0.2,0.4,0.4,0.6,0.6c0.2,0.2,0.5,0.3,0.7,0.4V46C60.9,46.1,60.7,46.2,60.5,46.2L60.5,46.2z"/>
            <path class="st3" d="M63.6,37.8c0,0.1-0.1,0.2-0.2,0.3c-0.1,0.1-0.2,0.1-0.2,0.2c-0.1,0.1-0.2,0.1-0.3,0.1c-0.1,0-0.2,0-0.3-0.1
			c-0.1,0-0.2-0.1-0.2-0.2c-0.1-0.1-0.1-0.2-0.2-0.2c0-0.1-0.1-0.2-0.1-0.3c0-0.1,0-0.2,0.1-0.3c0-0.1,0.1-0.2,0.2-0.3
			c0.1-0.1,0.2-0.1,0.2-0.2c0.1,0,0.2-0.1,0.3-0.1c0.2,0,0.4,0.1,0.5,0.2c0.1,0.1,0.1,0.1,0.2,0.2c0,0.1,0.1,0.2,0.1,0.3
			C63.6,37.6,63.6,37.7,63.6,37.8L63.6,37.8z M63.8,46.1c-0.1,0-0.2,0.1-0.4,0.1h-0.4h-0.5h-0.5c-0.2,0-0.4,0-0.5-0.1v-0.2
			c0.1,0,0.2-0.1,0.3-0.1c0.1-0.1,0.2-0.1,0.2-0.2c0.1-0.1,0.1-0.1,0.2-0.2c0-0.1,0.1-0.2,0-0.2v-4.6l-0.9-0.4v-0.3
			c0.3-0.1,0.6-0.2,0.9-0.2c0.2,0,0.5-0.1,0.7-0.1h0.4l-0.1,0.7v5.2l0.8,0.2V46L63.8,46.1L63.8,46.1z"/>
            <path class="st3" d="M67.2,37.8c0,0.1-0.1,0.2-0.2,0.3c-0.1,0.1-0.2,0.1-0.2,0.2c-0.1,0-0.2,0.1-0.3,0.1c-0.1,0-0.2,0-0.3-0.1
			c-0.1,0-0.2-0.1-0.2-0.2c-0.1-0.1-0.1-0.2-0.2-0.2c0-0.1-0.1-0.2-0.1-0.3c0-0.1,0-0.2,0-0.3c0.1-0.1,0.1-0.2,0.2-0.2
			c0.1-0.1,0.2-0.1,0.2-0.2c0.1,0,0.2-0.1,0.3-0.1c0.1,0,0.2,0,0.3,0c0.1,0,0.2,0.1,0.2,0.2c0.1,0.1,0.1,0.1,0.2,0.2
			c0,0.1,0.1,0.2,0.1,0.3C67.3,37.6,67.3,37.7,67.2,37.8L67.2,37.8z M67,40.3v6.2c0,0.5,0,0.9-0.1,1.4c-0.1,0.3-0.2,0.6-0.3,0.9
			c-0.1,0.2-0.3,0.4-0.5,0.5c-0.2,0.1-0.4,0.1-0.6,0.1c-0.2,0-0.3,0-0.4-0.1c-0.1-0.1-0.2-0.1-0.3-0.2v-0.2c0.2,0,0.3,0,0.4-0.1
			c0.2-0.1,0.3-0.2,0.4-0.4c0.1-0.2,0.2-0.4,0.3-0.7c0.1-0.3,0.1-0.6,0.1-0.9v-6.3L65,40.1v-0.3c0.3-0.1,0.6-0.2,0.9-0.2
			c0.2,0,0.5-0.1,0.7-0.1h0.4L67,40.3L67,40.3z"/>
            <path class="st3" d="M74.2,46.2c-0.2,0-0.4,0.1-0.6,0.1c-0.2,0-0.4,0-0.5-0.1c-0.2-0.1-0.3-0.2-0.4-0.4l-2.2-3v2.8l0.7,0.2V46
			c-0.1,0-0.2,0.1-0.4,0.1l-0.4,0.1c-0.1,0-0.3,0-0.4,0h-0.4h-0.5c-0.2,0-0.4,0-0.5-0.1v-0.2c0.1,0,0.2-0.1,0.3-0.1
			c0.1,0,0.2-0.1,0.2-0.2c0.1-0.1,0.1-0.1,0.2-0.2c0-0.1,0.1-0.2,0.1-0.2v-8l-0.9-0.4v-0.3c0.3-0.1,0.6-0.2,0.9-0.2
			c0.3,0,0.5,0,0.7,0h0.5L70.4,37v5.5l0.8-0.7c0.2-0.2,0.4-0.3,0.5-0.5c0.2-0.2,0.3-0.4,0.4-0.6c0.1-0.2,0.2-0.4,0.3-0.6
			c0.1-0.2,0.1-0.3,0.1-0.5c0.1,0,0.2-0.1,0.4-0.1c0.1,0,0.2,0,0.4,0c0.1,0,0.2,0,0.3,0c0.1,0,0.2,0.1,0.3,0.1
			c0,0.2-0.1,0.3-0.1,0.5c-0.1,0.2-0.2,0.4-0.3,0.6c-0.2,0.2-0.4,0.4-0.6,0.7c-0.3,0.2-0.5,0.5-0.8,0.7l-0.5,0.3l2.1,2.6
			c0.2,0.2,0.3,0.4,0.6,0.5c0.1,0.1,0.3,0.1,0.5,0.2V46C74.5,46,74.4,46.1,74.2,46.2L74.2,46.2z"/>
            <path class="st3" d="M79.3,45c-0.1,0.2-0.3,0.5-0.5,0.6c-0.2,0.2-0.5,0.4-0.8,0.5c-0.3,0.1-0.7,0.2-1,0.2c-0.5,0-0.9-0.1-1.4-0.3
			c-0.3-0.2-0.5-0.5-0.4-0.8c0-0.1,0-0.2,0-0.3c0-0.1,0.1-0.2,0.1-0.3c0.3,0.3,0.6,0.5,0.9,0.7c0.3,0.1,0.7,0.2,1,0.2
			c0.3,0,0.6-0.1,0.9-0.2c0.2-0.1,0.3-0.4,0.3-0.6c0-0.1,0-0.2-0.1-0.3c0-0.1-0.1-0.2-0.2-0.3c-0.1-0.1-0.2-0.2-0.4-0.3
			c-0.2-0.1-0.4-0.2-0.6-0.3l-0.7-0.3c-0.4-0.1-0.7-0.4-0.9-0.7c-0.2-0.3-0.3-0.6-0.3-1c0-0.3,0.1-0.5,0.2-0.8
			c0.1-0.2,0.3-0.5,0.5-0.6c0.2-0.2,0.5-0.3,0.8-0.4c0.3-0.1,0.7-0.2,1-0.2c0.2,0,0.5,0,0.7,0.1c0.2,0,0.3,0.1,0.5,0.2
			c0.1,0.1,0.2,0.2,0.3,0.3c0.1,0.1,0.1,0.2,0.1,0.4c0,0.1,0,0.2,0,0.3c0,0.1,0,0.2-0.1,0.3c-0.2-0.2-0.5-0.3-0.8-0.4
			c-0.3-0.1-0.5-0.1-0.8-0.2c-0.2,0-0.4,0-0.6,0.1c-0.1,0-0.3,0.1-0.4,0.2c-0.1,0.1-0.2,0.2-0.2,0.3c0,0.1-0.1,0.2-0.1,0.3
			c0,0.1,0,0.2,0,0.3c0,0.1,0.1,0.2,0.2,0.3c0.1,0.1,0.2,0.2,0.3,0.2c0.2,0.1,0.3,0.2,0.5,0.2l0.7,0.3c0.2,0.1,0.4,0.2,0.6,0.3
			c0.2,0.1,0.3,0.2,0.4,0.4c0.1,0.1,0.2,0.3,0.2,0.5c0,0.2,0.1,0.4,0.1,0.5C79.4,44.6,79.3,44.8,79.3,45L79.3,45z"/>
            <polygon class="st3" points="89,40.2 86.7,46.3 86.1,46.3 84.6,41.2 84.6,41.2 83,46.3 82.4,46.3 80.4,40.3 79.8,39.9 79.8,39.6
			82.4,39.6 82.4,39.9 81.6,40.2 82.9,44.6 82.9,44.6 84.2,40.2 83.5,39.9 83.5,39.6 85.8,39.6 85.8,39.9 85.4,40.2 86.7,44.6
			86.7,44.6 88.1,40.3 87.3,39.9 87.3,39.6 89.4,39.6 89.4,39.9 89,40.2 		"/>
            <path class="st3" d="M93.4,43.2c-0.3,0-0.7,0-1,0.1c-0.3,0.1-0.5,0.2-0.7,0.3c-0.2,0.1-0.3,0.3-0.5,0.4c-0.1,0.2-0.1,0.4-0.2,0.5
			c0,0.2,0.1,0.5,0.3,0.7c0.2,0.2,0.5,0.3,0.8,0.2h0.3l0.4-0.1c0.1,0,0.2-0.1,0.3-0.1c0.1,0,0.2-0.1,0.3-0.1L93.4,43.2L93.4,43.2z
			 M94.6,46c-0.2,0.1-0.3,0.2-0.5,0.3c-0.1-0.1-0.3-0.2-0.4-0.3c-0.1-0.1-0.2-0.2-0.3-0.4c-0.1,0.1-0.2,0.2-0.3,0.3
			c-0.1,0.1-0.3,0.2-0.4,0.2c-0.2,0.1-0.3,0.1-0.5,0.1c-0.2,0-0.4,0.1-0.5,0c-0.2,0-0.5,0-0.7-0.1c-0.2-0.1-0.4-0.2-0.6-0.3
			c-0.2-0.1-0.3-0.3-0.4-0.5c-0.1-0.2-0.1-0.4-0.1-0.6c0-0.3,0.1-0.6,0.2-0.8c0.2-0.3,0.4-0.5,0.7-0.7c0.3-0.2,0.7-0.4,1.1-0.5
			c0.5-0.1,1-0.2,1.5-0.2v-0.4c0-0.3,0-0.6-0.1-0.9c0-0.2-0.1-0.4-0.2-0.5c-0.1-0.1-0.2-0.2-0.4-0.3c-0.2,0-0.4-0.1-0.6-0.1
			c-0.4,0-0.8,0.1-1.1,0.2c-0.4,0.2-0.7,0.4-1,0.7c0-0.1,0-0.3,0-0.4c0-0.2,0-0.4,0.1-0.6c0.1-0.2,0.2-0.3,0.4-0.4
			c0.2-0.1,0.5-0.2,0.7-0.3c0.3-0.1,0.7-0.1,1-0.1c0.3,0,0.6,0,0.9,0.1c0.3,0.1,0.5,0.2,0.7,0.4c0.2,0.2,0.3,0.4,0.4,0.6
			c0.1,0.2,0.2,0.5,0.2,0.8c0,0.1,0,0.2,0,0.3c0,0.1,0,0.2,0,0.4c0,0.1,0,0.3,0,0.4s0,0.2,0,0.3v2.2c0.1,0.1,0.1,0.3,0.2,0.4
			c0.1,0.1,0.2,0.2,0.3,0.3C94.9,45.8,94.8,45.9,94.6,46L94.6,46z"/>
            <path class="st3" d="M98.3,46.3c-0.5,0-0.9-0.1-1.2-0.5c-0.3-0.4-0.4-0.9-0.4-1.5c0-0.3,0-0.7,0-1s0-0.7,0-1v-1.8H96v-0.5l1.5-1.5
			l0.4,0l-0.1,1.2h1.8l-0.1,0.7h-1.8v1.7c0,0.3,0,0.6,0,0.8v0.8c0,0.2,0,0.5,0.1,0.7c0,0.1,0,0.3,0.1,0.4c0.1,0.1,0.2,0.2,0.3,0.2
			c0.1,0.1,0.2,0.1,0.3,0.1c0.2,0,0.4,0,0.6-0.1c0.2-0.1,0.3-0.2,0.4-0.3l0.1,0C99.7,45.8,99.2,46.2,98.3,46.3L98.3,46.3z"/>
            <path class="st3" d="M104.5,41.3c-0.1-0.2-0.2-0.4-0.3-0.6c-0.1-0.2-0.3-0.3-0.4-0.4c-0.2-0.1-0.4-0.1-0.6-0.1
			c-0.2,0-0.4,0.1-0.6,0.2c-0.2,0.1-0.4,0.3-0.5,0.4c-0.2,0.2-0.3,0.4-0.4,0.6c-0.1,0.2-0.1,0.5-0.1,0.8h2.9
			C104.6,41.9,104.5,41.6,104.5,41.3z M105.7,42.9h-4c0,0.3,0.1,0.7,0.2,1c0.1,0.3,0.2,0.5,0.4,0.8c0.2,0.2,0.4,0.4,0.6,0.5
			c0.3,0.1,0.5,0.2,0.8,0.2c0.2,0,0.3,0,0.5,0c0.3-0.1,0.7-0.2,1-0.3c0.2-0.1,0.3-0.2,0.4-0.2c0,0,0,0.1,0,0.2c0,0.1,0,0.1,0,0.2
			c0,0.2-0.1,0.3-0.2,0.5c-0.1,0.2-0.3,0.3-0.5,0.4c-0.2,0.1-0.5,0.2-0.7,0.3c-0.3,0.1-0.7,0.1-1,0.1c-0.8,0-1.5-0.3-2-0.8
			c-0.3-0.3-0.5-0.6-0.6-1c-0.1-0.4-0.2-0.9-0.2-1.3c0-0.5,0.1-1.1,0.2-1.6c0.1-0.4,0.4-0.8,0.7-1.2c0.2-0.3,0.6-0.5,0.9-0.7
			c0.3-0.2,0.7-0.2,1.1-0.2c0.3,0,0.7,0.1,1,0.2c0.3,0.1,0.5,0.3,0.7,0.5c0.2,0.2,0.4,0.5,0.5,0.8c0.1,0.3,0.2,0.7,0.2,1.1v0.4
			C105.7,42.6,105.7,42.7,105.7,42.9L105.7,42.9z"/>
            <path class="st3" d="M110.8,40.5c0,0.1-0.1,0.3-0.2,0.4c-0.1-0.1-0.3-0.2-0.4-0.2c-0.1-0.1-0.3-0.1-0.4-0.1
			c-0.5,0-0.9,0.2-1.2,0.6v4.4l0.9,0.2V46c-0.1,0-0.2,0.1-0.4,0.1c-0.1,0-0.2,0.1-0.4,0.1h-0.4h-0.5h-0.6c-0.2,0-0.4,0-0.5-0.1v-0.2
			c0.1,0,0.2-0.1,0.3-0.1c0.1,0,0.2-0.1,0.2-0.2c0.1-0.1,0.1-0.1,0.2-0.2c0-0.1,0.1-0.2,0.1-0.2v-4.6l-0.9-0.4v-0.3
			c0.3-0.1,0.6-0.2,0.9-0.2c0.2,0,0.5-0.1,0.7-0.1h0.3v1l0,0l0.4-0.4c0.2-0.2,0.4-0.3,0.6-0.5c0.2-0.1,0.4-0.2,0.6-0.2
			c0.5,0,0.7,0.2,0.7,0.6C110.9,40.3,110.8,40.4,110.8,40.5L110.8,40.5z"/>
            <path class="st3" d="M115.6,45c-0.1,0.2-0.3,0.5-0.5,0.6c-0.2,0.2-0.5,0.4-0.8,0.5c-0.3,0.1-0.7,0.2-1,0.2c-0.5,0-0.9-0.1-1.3-0.3
			c-0.3-0.2-0.5-0.5-0.4-0.8c0-0.1,0-0.2,0-0.3c0-0.1,0.1-0.2,0.1-0.3c0.3,0.3,0.6,0.5,0.9,0.7c0.3,0.1,0.7,0.2,1,0.2
			c0.3,0,0.6-0.1,0.9-0.2c0.2-0.1,0.3-0.4,0.3-0.6c0-0.1,0-0.2-0.1-0.3c0-0.1-0.1-0.2-0.2-0.3c-0.1-0.1-0.2-0.2-0.4-0.3
			c-0.2-0.1-0.4-0.2-0.6-0.3l-0.7-0.3c-0.4-0.1-0.7-0.4-0.9-0.7c-0.2-0.3-0.3-0.6-0.3-1c0-0.3,0.1-0.5,0.2-0.8
			c0.1-0.2,0.3-0.5,0.5-0.6c0.2-0.2,0.5-0.3,0.8-0.4c0.3-0.1,0.7-0.2,1-0.2c0.2,0,0.5,0,0.7,0.1c0.2,0,0.3,0.1,0.5,0.2
			c0.1,0.1,0.2,0.2,0.3,0.3c0.1,0.1,0.1,0.2,0.1,0.4c0,0.1,0,0.2,0,0.3c0,0.1,0,0.2-0.1,0.3c-0.2-0.2-0.5-0.3-0.8-0.4
			c-0.3-0.1-0.5-0.1-0.8-0.2c-0.2,0-0.4,0-0.6,0.1c-0.1,0-0.3,0.1-0.4,0.2c-0.1,0.1-0.2,0.2-0.2,0.3c0,0.1-0.1,0.2-0.1,0.3
			c0,0.1,0,0.2,0,0.3c0,0.1,0.1,0.2,0.2,0.3c0.1,0.1,0.2,0.2,0.3,0.2c0.2,0.1,0.3,0.2,0.5,0.2l0.7,0.3c0.2,0.1,0.4,0.2,0.6,0.3
			c0.2,0.1,0.3,0.2,0.4,0.4c0.1,0.1,0.2,0.3,0.2,0.5c0,0.2,0.1,0.4,0.1,0.5C115.8,44.6,115.7,44.8,115.6,45L115.6,45z"/>
            <path class="st3" d="M119,46.3c-0.5,0-0.9-0.1-1.2-0.5c-0.3-0.4-0.4-0.9-0.4-1.5c0-0.3,0-0.7,0-1s0-0.7,0-1v-1.8h-0.8v-0.5
			l1.5-1.5l0.4,0l-0.1,1.2h1.8l-0.1,0.7h-1.8v1.7c0,0.3,0,0.6,0,0.8v0.8c0,0.2,0,0.5,0.1,0.7c0,0.2,0.1,0.3,0.2,0.5
			c0.1,0.1,0.2,0.2,0.3,0.2c0.1,0.1,0.2,0.1,0.3,0.1c0.2,0,0.4,0,0.6-0.1c0.2-0.1,0.3-0.2,0.4-0.3l0.1,0
			C120.3,45.9,119.9,46.3,119,46.3L119,46.3z"/>
            <path class="st3" d="M124.6,43.2c-0.3,0-0.7,0-1,0.1c-0.3,0.1-0.5,0.2-0.7,0.3c-0.2,0.1-0.3,0.3-0.5,0.4c-0.1,0.2-0.1,0.3-0.2,0.5
			c0,0.2,0.1,0.5,0.3,0.7c0.2,0.2,0.5,0.3,0.8,0.2h0.3l0.4-0.1c0.1,0,0.2-0.1,0.3-0.1c0.1,0,0.2-0.1,0.3-0.1L124.6,43.2L124.6,43.2z
			 M125.7,46c-0.2,0.1-0.3,0.2-0.5,0.3c-0.1-0.1-0.3-0.2-0.4-0.3c-0.1-0.1-0.2-0.2-0.3-0.4c-0.1,0.1-0.2,0.2-0.3,0.3
			c-0.1,0.1-0.3,0.2-0.4,0.2c-0.2,0.1-0.3,0.1-0.5,0.1c-0.2,0-0.4,0.1-0.5,0c-0.2,0-0.5,0-0.7-0.1c-0.2-0.1-0.4-0.2-0.6-0.3
			c-0.2-0.1-0.3-0.3-0.4-0.5c-0.1-0.2-0.1-0.4-0.1-0.6c0-0.3,0.1-0.6,0.2-0.8c0.2-0.3,0.4-0.5,0.7-0.7c0.3-0.2,0.7-0.4,1.1-0.5
			c0.5-0.1,1-0.2,1.5-0.2v-0.4c0-0.3,0-0.6-0.1-0.9c0-0.2-0.1-0.4-0.2-0.5c-0.1-0.1-0.2-0.2-0.4-0.3c-0.2,0-0.4-0.1-0.6-0.1
			c-0.4,0-0.8,0.1-1.1,0.2c-0.4,0.2-0.7,0.4-1,0.7c0-0.1,0-0.3,0-0.4c0-0.2,0-0.4,0.1-0.6c0.1-0.2,0.2-0.3,0.4-0.4
			c0.2-0.1,0.5-0.2,0.7-0.3c0.3-0.1,0.7-0.1,1-0.1c0.3,0,0.6,0,0.9,0.1c0.3,0.1,0.5,0.2,0.7,0.4c0.2,0.2,0.3,0.4,0.4,0.6
			c0.1,0.2,0.2,0.5,0.2,0.8c0,0.1,0,0.2,0,0.3c0,0.1,0,0.2,0,0.4c0,0.1,0,0.3,0,0.4s0,0.2,0,0.3v2.2c0.1,0.1,0.1,0.3,0.2,0.4
			c0.1,0.1,0.2,0.2,0.3,0.3C126.1,45.8,126,45.9,125.7,46L125.7,46z"/>
            <path class="st3" d="M130.7,43.2c-0.3,0-0.7,0-1,0.1c-0.3,0.1-0.5,0.2-0.7,0.3c-0.2,0.1-0.3,0.3-0.5,0.4c-0.1,0.2-0.1,0.4-0.1,0.5
			c0,0.2,0.1,0.5,0.3,0.7c0.2,0.2,0.5,0.3,0.8,0.2h0.3l0.4-0.1c0.1,0,0.2-0.1,0.3-0.1c0.1,0,0.2-0.1,0.3-0.1L130.7,43.2L130.7,43.2z
			 M131.9,46c-0.2,0.1-0.3,0.2-0.5,0.3c-0.1-0.1-0.3-0.2-0.4-0.3c-0.1-0.1-0.2-0.2-0.3-0.4c-0.1,0.1-0.2,0.2-0.3,0.3
			c-0.1,0.1-0.3,0.2-0.4,0.2c-0.2,0.1-0.3,0.1-0.5,0.1c-0.2,0-0.4,0.1-0.5,0c-0.2,0-0.5,0-0.7-0.1c-0.2-0.1-0.4-0.2-0.6-0.3
			c-0.2-0.1-0.3-0.3-0.4-0.5c-0.1-0.2-0.1-0.4-0.1-0.6c0-0.3,0.1-0.6,0.2-0.8c0.2-0.3,0.4-0.5,0.7-0.7c0.3-0.2,0.7-0.4,1.1-0.5
			c0.5-0.1,1-0.2,1.5-0.2v-0.4c0-0.3,0-0.6-0.1-0.9c0-0.2-0.1-0.4-0.2-0.5c-0.1-0.1-0.2-0.2-0.4-0.3c-0.2,0-0.4-0.1-0.6-0.1
			c-0.4,0-0.8,0.1-1.1,0.2c-0.4,0.2-0.7,0.4-1,0.7c0-0.1,0-0.3,0-0.4c0-0.2,0-0.4,0.1-0.6c0.1-0.2,0.2-0.3,0.4-0.4
			c0.2-0.1,0.5-0.2,0.7-0.3c0.3-0.1,0.7-0.1,1-0.1c0.3,0,0.6,0,0.9,0.1c0.3,0.1,0.5,0.2,0.7,0.4c0.2,0.2,0.3,0.4,0.4,0.6
			c0.1,0.2,0.2,0.5,0.1,0.8c0,0.1,0,0.2,0,0.3c0,0.1,0,0.2,0,0.4s0,0.3,0,0.4s0,0.2,0,0.3v2.2c0.1,0.1,0.1,0.3,0.2,0.4
			c0.1,0.1,0.2,0.2,0.3,0.3C132.3,45.7,132.1,45.9,131.9,46L131.9,46z"/>
            <path class="st3" d="M135.6,46.3c-0.5,0-0.9-0.1-1.2-0.5c-0.3-0.4-0.4-0.9-0.4-1.5c0-0.3,0-0.7,0-1s0-0.7,0-1v-1.8h-0.8v-0.5
			l1.5-1.5l0.4,0l-0.1,1.2h1.9l-0.1,0.7h-1.8v1.7c0,0.3,0,0.6,0,0.8v0.8c0,0.2,0,0.5,0.1,0.7c0,0.2,0.1,0.3,0.2,0.5
			c0.1,0.1,0.2,0.2,0.3,0.2c0.1,0.1,0.2,0.1,0.3,0.1c0.2,0,0.4,0,0.6-0.1c0.2-0.1,0.3-0.2,0.5-0.3l0.1,0
			C137.1,45.9,136.6,46.3,135.6,46.3L135.6,46.3z"/>
            <path class="st3" d="M55.2,61.7c-0.2,0-0.4,0-0.6,0c-0.2,0-0.3,0-0.5,0c-0.2,0-0.3-0.1-0.5-0.1v-0.2c0.1-0.1,0.2-0.1,0.3-0.2
			c0.1-0.1,0.2-0.2,0.2-0.3l1.7-7.3l-0.7-0.2V53l0.3-0.1h0.4c0.1,0,0.3,0,0.4,0H57l1.2,6.5l0,0l2.3-6.5h0.6h0.4h0.3l0.3,0v0.3
			l-0.7,0.2l0.3,7.5l0.8,0.2v0.3c-0.2,0.1-0.4,0.1-0.6,0.2c-0.2,0-0.4,0.1-0.6,0c-0.3,0-0.5,0-0.7,0c-0.2,0-0.3-0.1-0.5-0.1v-0.2
			c0.1-0.1,0.2-0.1,0.3-0.2c0.1-0.1,0.1-0.3,0.1-0.5l-0.1-6.1l0,0l-2.5,7.2h-0.4l-1.3-7.2l0,0L55,61l0.8,0.2v0.3
			C55.6,61.6,55.4,61.6,55.2,61.7L55.2,61.7z"/>
            <path class="st3" d="M65.7,53.1c0,0.1-0.1,0.2-0.2,0.3c-0.1,0.1-0.2,0.1-0.2,0.2c-0.1,0-0.2,0.1-0.3,0.1c-0.2,0-0.3-0.1-0.4-0.2
			c-0.1-0.1-0.2-0.3-0.2-0.5c0-0.1,0-0.2,0.1-0.3c0-0.1,0.1-0.2,0.2-0.3c0.1-0.1,0.1-0.1,0.2-0.2c0.1,0,0.2-0.1,0.3-0.1
			c0.2,0,0.3,0.1,0.4,0.2c0.1,0.1,0.2,0.3,0.2,0.5C65.7,52.9,65.7,53,65.7,53.1L65.7,53.1z M63.7,61.6c-0.1-0.1-0.2-0.3-0.2-0.5
			c0-0.1,0-0.2,0-0.4s0-0.3,0-0.5s0-0.3,0.1-0.5c0-0.2,0-0.3,0-0.5l0.4-2.8l0.1-0.8l-0.8-0.3v-0.3c0.4-0.2,0.9-0.2,1.4-0.2h0.3
			c0.1,0,0.2,0,0.3,0.1l-0.6,4c0,0.1,0,0.2,0,0.4v0.4c0,0.1,0,0.3,0,0.4v0.3c0,0.2,0,0.4,0.1,0.5c0.1,0.1,0.3,0.2,0.4,0.3v0.2
			c-0.1,0.1-0.3,0.1-0.5,0.1c-0.2,0-0.4,0.1-0.6,0c-0.2,0-0.4,0-0.5-0.2L63.7,61.6z"/>
            <path class="st3" d="M71.4,56.5c0,0.1,0,0.3-0.1,0.4s-0.1,0.3-0.1,0.5s0,0.3-0.1,0.5L71,59.4c0,0.1,0,0.2,0,0.3V60
			c0,0.1,0,0.2,0,0.3c0,0.1,0,0.2,0,0.3c0,0.2,0,0.4,0.2,0.5c0.1,0.1,0.3,0.2,0.5,0.2v0.2c-0.2,0.1-0.3,0.2-0.5,0.2
			c-0.2,0-0.4,0.1-0.6,0.1c-0.2,0-0.4,0-0.5-0.2c-0.1-0.1-0.2-0.3-0.2-0.5c0-0.1,0-0.2,0-0.3s0-0.2,0-0.4s0-0.3,0.1-0.4
			s0-0.3,0.1-0.4l0.3-1.6c0-0.1,0-0.2,0.1-0.3v-0.4c0-0.1,0-0.2,0-0.4c0-0.1,0-0.2,0-0.3c0-0.1,0-0.3,0-0.4c0-0.1-0.1-0.2-0.1-0.3
			c0,0-0.1-0.1-0.1-0.1c-0.1,0-0.2,0-0.2,0c-0.2,0-0.4,0.1-0.6,0.3c-0.2,0.2-0.4,0.5-0.6,0.7c-0.2,0.3-0.4,0.7-0.5,1
			c-0.1,0.4-0.2,0.9-0.2,1.4l-0.1,2.3h-1.1l0.7-5.9l-0.8-0.3v-0.3c0.2-0.1,0.4-0.1,0.7-0.2c0.2,0,0.5-0.1,0.7,0L68,55
			c0.1,0,0.2,0,0.3,0.1l-0.4,2.1l0,0c0.1-0.3,0.3-0.6,0.5-0.9c0.2-0.3,0.4-0.5,0.6-0.7c0.2-0.2,0.4-0.3,0.7-0.4
			c0.2-0.1,0.5-0.1,0.7-0.2c0.1,0,0.3,0,0.4,0.1c0.1,0.1,0.2,0.1,0.3,0.2c0.1,0.1,0.2,0.3,0.2,0.4c0.1,0.2,0.1,0.4,0.1,0.5
			C71.4,56.3,71.4,56.5,71.4,56.5L71.4,56.5z"/>
            <path class="st3" d="M75,53.1c0,0.1-0.1,0.2-0.2,0.3c-0.1,0.1-0.2,0.1-0.2,0.2c-0.1,0-0.2,0.1-0.3,0.1c-0.2,0-0.3-0.1-0.4-0.2
			c-0.1-0.1-0.2-0.3-0.2-0.5c0-0.1,0-0.2,0.1-0.3c0-0.1,0.1-0.2,0.2-0.3c0.1-0.1,0.1-0.1,0.2-0.2c0.1,0,0.2-0.1,0.3-0.1
			c0.2,0,0.3,0.1,0.4,0.2c0.1,0.1,0.2,0.3,0.2,0.5C75.1,52.9,75,53,75,53.1L75,53.1z M73,61.6c-0.1-0.1-0.2-0.3-0.2-0.5
			c0-0.1,0-0.2,0-0.4s0-0.3,0.1-0.5s0-0.3,0.1-0.5c0-0.2,0-0.3,0.1-0.5l0.4-2.8l0.1-0.8l-0.8-0.3v-0.3c0.4-0.2,0.9-0.2,1.4-0.2h0.3
			c0.1,0,0.2,0,0.3,0.1l-0.6,4c0,0.1,0,0.2,0,0.4v0.4c0,0.1,0,0.3,0,0.4v0.3c0,0.2,0,0.4,0.1,0.5c0.1,0.1,0.3,0.2,0.4,0.3v0.2
			c-0.1,0.1-0.3,0.1-0.5,0.1c-0.2,0-0.4,0.1-0.6,0c-0.2,0-0.4,0-0.5-0.2L73,61.6z"/>
            <path class="st3" d="M79.4,56c0,0.1-0.1,0.2-0.2,0.3c-0.2-0.2-0.4-0.4-0.7-0.5c-0.2-0.1-0.5-0.2-0.8-0.2c-0.3,0-0.5,0.1-0.7,0.2
			c-0.2,0.1-0.2,0.3-0.2,0.5c0,0.1,0,0.2,0,0.3c0,0.1,0.1,0.2,0.1,0.3c0.1,0.1,0.2,0.2,0.3,0.3l0.4,0.4l0.5,0.5l0.4,0.4
			c0.1,0.1,0.2,0.2,0.3,0.4c0.1,0.1,0.1,0.2,0.2,0.4c0,0.1,0,0.3,0,0.4c0,0.3-0.1,0.5-0.2,0.8c-0.1,0.3-0.3,0.5-0.5,0.7
			c-0.2,0.2-0.5,0.3-0.8,0.4c-0.3,0.1-0.7,0.2-1,0.2c-0.3,0-0.7,0-0.9-0.2c-0.2-0.1-0.3-0.4-0.3-0.6c0-0.2,0.1-0.4,0.2-0.6
			c0.2,0.2,0.4,0.3,0.6,0.4c0.2,0.1,0.5,0.1,0.7,0.2c0.2,0,0.3,0,0.4-0.1c0.1,0,0.3-0.1,0.4-0.2c0.1-0.1,0.2-0.2,0.2-0.3
			c0.1-0.1,0.1-0.3,0.1-0.4c0-0.1,0-0.2,0-0.3c0-0.1-0.1-0.2-0.1-0.3c-0.1-0.1-0.2-0.2-0.3-0.3c-0.1-0.1-0.3-0.3-0.4-0.4l-0.5-0.4
			c-0.2-0.2-0.3-0.3-0.4-0.4c-0.1-0.1-0.2-0.2-0.2-0.4c-0.1-0.1-0.1-0.2-0.1-0.4c0-0.1,0-0.3,0-0.4c0-0.2,0.1-0.5,0.2-0.7
			c0.1-0.2,0.3-0.4,0.4-0.6c0.2-0.2,0.4-0.3,0.7-0.4c0.3-0.1,0.6-0.2,0.9-0.2c0.4,0,0.8,0.1,1.1,0.2c0.2,0.1,0.4,0.3,0.4,0.5
			C79.5,55.7,79.4,55.9,79.4,56L79.4,56z"/>
            <path class="st3" d="M83.2,55.7c-0.3,0.2-0.6,0.2-0.9,0.2h-0.4l-0.2,1.4c0,0.2-0.1,0.4-0.1,0.6l-0.1,0.6c0,0.2-0.1,0.4-0.1,0.6
			c0,0.2,0,0.3,0,0.5c0,0.2,0,0.4,0.1,0.6c0,0.1,0.1,0.3,0.2,0.4c0.1,0.1,0.2,0.2,0.3,0.2c0.1,0,0.3,0.1,0.4,0.1c0.1,0,0.2,0,0.3,0
			l0.3-0.1v0.2c0,0.1-0.1,0.2-0.2,0.2c-0.1,0.1-0.2,0.2-0.3,0.2c-0.1,0.1-0.2,0.1-0.4,0.2c-0.1,0-0.3,0.1-0.4,0
			c-0.4,0-0.8-0.1-1-0.4c-0.2-0.4-0.4-0.8-0.3-1.2c0-0.2,0-0.5,0-0.7s0.1-0.6,0.1-0.9s0.1-0.6,0.1-0.9s0.1-0.6,0.2-0.8l0.2-0.9
			c-0.1,0-0.3,0-0.4,0h-0.4v-0.2c0.2-0.3,0.5-0.6,0.8-0.9c0.3-0.3,0.6-0.6,1-0.8h0.2L82,55.1h0.4h0.5c0.2,0,0.3,0,0.5-0.1
			C83.5,55.3,83.4,55.5,83.2,55.7L83.2,55.7z"/>
            <path class="st3" d="M86.7,55.8c-0.1-0.1-0.3-0.2-0.5-0.2c-0.2,0-0.4,0.1-0.5,0.2c-0.2,0.1-0.3,0.3-0.5,0.5
			c-0.2,0.3-0.3,0.5-0.4,0.8c-0.1,0.3-0.1,0.7-0.1,1.1c0.3,0,0.6,0,0.8-0.1c0.2-0.1,0.5-0.2,0.7-0.3c0.4-0.3,0.6-0.8,0.6-1.3
			C86.9,56.3,86.9,56.1,86.7,55.8L86.7,55.8z M87.6,60.4c0,0.1,0.1,0.1,0.1,0.2c0,0.2-0.1,0.3-0.2,0.5c-0.1,0.2-0.3,0.3-0.4,0.4
			c-0.2,0.1-0.4,0.2-0.6,0.3c-0.3,0.1-0.5,0.1-0.8,0.1c-0.3,0-0.5,0-0.8-0.1c-0.2-0.1-0.5-0.2-0.6-0.4c-0.2-0.2-0.3-0.5-0.4-0.8
			c-0.1-0.3-0.1-0.7-0.1-1.1c0-0.7,0.1-1.4,0.3-2c0.2-0.5,0.4-1,0.7-1.4c0.2-0.3,0.6-0.6,0.9-0.8c0.3-0.2,0.6-0.3,1-0.3
			c0.4,0,0.8,0.1,1.1,0.4c0.3,0.3,0.4,0.7,0.4,1c0,0.4-0.1,0.8-0.3,1.1c-0.2,0.3-0.4,0.6-0.7,0.8c-0.3,0.2-0.7,0.4-1.1,0.5
			c-0.4,0.1-0.8,0.2-1.2,0.2c0,0.3,0,0.7,0.1,1c0,0.2,0.1,0.4,0.2,0.6c0.1,0.1,0.2,0.3,0.4,0.3c0.2,0.1,0.4,0.1,0.6,0.2
			c0.1,0,0.3,0,0.4-0.1c0.1,0,0.3-0.1,0.4-0.1c0.1-0.1,0.3-0.1,0.4-0.2C87.3,60.5,87.4,60.4,87.6,60.4
			C87.5,60.3,87.6,60.4,87.6,60.4L87.6,60.4z"/>
            <path class="st3" d="M88.6,55.2c0.2-0.1,0.4-0.1,0.6-0.2c0.2,0,0.5-0.1,0.7,0h0.3c0.1,0,0.2,0,0.3,0.1l-0.4,2l0,0l0.7-1.2
			c0.1-0.2,0.3-0.5,0.6-0.7c0.2-0.1,0.4-0.2,0.6-0.2c0.1,0,0.3,0,0.3,0.1c0.1,0.1,0.1,0.2,0.1,0.4c0,0.1,0,0.2,0,0.4
			c0,0.1-0.1,0.2-0.1,0.4c-0.1,0-0.1,0-0.2,0h-0.2c-0.2,0-0.5,0.1-0.7,0.2c-0.2,0.2-0.4,0.4-0.6,0.6c-0.2,0.3-0.4,0.7-0.5,1.1
			c-0.1,0.5-0.2,1.1-0.2,1.6l-0.1,2h-1.1l0.7-5.9l-0.8-0.3L88.6,55.2L88.6,55.2z"/>
            <path class="st3" d="M95,53.1c0,0.1-0.1,0.2-0.2,0.3c-0.1,0.1-0.2,0.1-0.2,0.2c-0.1,0-0.2,0.1-0.3,0.1c-0.2,0-0.3-0.1-0.4-0.2
			c-0.1-0.1-0.2-0.3-0.2-0.5c0-0.1,0-0.2,0.1-0.3c0-0.1,0.1-0.2,0.2-0.3c0.1-0.1,0.1-0.1,0.2-0.2c0.1,0,0.2-0.1,0.3-0.1
			c0.2,0,0.3,0.1,0.4,0.2c0.1,0.1,0.2,0.3,0.2,0.5C95.1,52.9,95,53,95,53.1L95,53.1z M93,61.6c-0.1-0.1-0.2-0.3-0.2-0.5
			c0-0.1,0-0.2,0-0.4s0-0.3,0.1-0.5s0-0.3,0.1-0.5c0-0.2,0-0.3,0.1-0.5l0.4-2.8l0.1-0.8l-0.8-0.3v-0.3c0.4-0.2,0.9-0.2,1.4-0.2h0.3
			c0.1,0,0.2,0,0.3,0.1l-0.6,4c0,0.1,0,0.2,0,0.4v0.4c0,0.1,0,0.3,0,0.4v0.3c0,0.2,0,0.4,0.1,0.5c0.1,0.1,0.3,0.2,0.4,0.3v0.2
			c-0.1,0.1-0.3,0.1-0.5,0.1c-0.2,0-0.4,0.1-0.6,0c-0.2,0-0.4,0-0.5-0.2L93,61.6z"/>
            <path class="st3" d="M98.8,55.8c-0.1-0.1-0.3-0.2-0.5-0.2c-0.2,0-0.4,0.1-0.5,0.2c-0.2,0.1-0.3,0.3-0.5,0.5
			c-0.2,0.3-0.3,0.5-0.4,0.8c-0.1,0.3-0.1,0.7-0.1,1.1c0.3,0,0.6,0,0.8-0.1c0.2-0.1,0.5-0.2,0.7-0.3c0.4-0.3,0.6-0.8,0.6-1.3
			C98.9,56.3,98.9,56.1,98.8,55.8L98.8,55.8z M99.6,60.4c0,0.1,0.1,0.1,0.1,0.2c0,0.2-0.1,0.3-0.2,0.5c-0.1,0.2-0.3,0.3-0.4,0.4
			c-0.2,0.1-0.4,0.2-0.6,0.3c-0.3,0.1-0.5,0.1-0.8,0.1c-0.3,0-0.5,0-0.8-0.1c-0.2-0.1-0.5-0.2-0.6-0.4c-0.2-0.2-0.3-0.5-0.4-0.8
			c-0.1-0.3-0.1-0.7-0.1-1.1c0-0.7,0.1-1.4,0.3-2c0.2-0.5,0.4-1,0.7-1.4c0.2-0.3,0.6-0.6,0.9-0.8c0.3-0.2,0.6-0.3,1-0.3
			c0.4,0,0.8,0.1,1.1,0.4c0.3,0.3,0.4,0.7,0.4,1.1c0,0.4-0.1,0.8-0.3,1.1c-0.2,0.3-0.4,0.6-0.7,0.8c-0.3,0.2-0.7,0.4-1.1,0.5
			c-0.4,0.1-0.8,0.2-1.2,0.2c0,0.3,0,0.7,0.1,1c0,0.2,0.1,0.4,0.2,0.6c0.1,0.1,0.2,0.3,0.4,0.3c0.2,0.1,0.4,0.1,0.6,0.1
			c0.1,0,0.3,0,0.4-0.1c0.1,0,0.3-0.1,0.4-0.1c0.1-0.1,0.3-0.1,0.4-0.2C99.3,60.5,99.4,60.4,99.6,60.4
			C99.5,60.3,99.6,60.4,99.6,60.4L99.6,60.4z"/>
            <path class="st3" d="M104.6,60.6c0.3-0.3,0.5-0.6,0.7-1c0.2-0.4,0.4-0.8,0.6-1.2c0.2-0.4,0.3-0.8,0.4-1.2c0.1-0.4,0.1-0.7,0.1-1.1
			c0-0.2,0-0.3-0.1-0.5c-0.1-0.1-0.2-0.2-0.4-0.3v-0.2c0.1-0.1,0.2-0.1,0.4-0.2c0.2,0,0.3-0.1,0.5,0c0.2,0,0.4,0.1,0.5,0.2
			c0.2,0.2,0.2,0.4,0.2,0.6c0,0.3,0,0.5-0.1,0.8c-0.1,0.3-0.2,0.6-0.3,1c-0.1,0.3-0.3,0.7-0.4,1c-0.2,0.3-0.3,0.7-0.6,1
			c-0.2,0.3-0.4,0.6-0.6,1c-0.2,0.3-0.4,0.5-0.7,0.8c-0.1,0.1-0.2,0.2-0.4,0.3c-0.1,0.1-0.2,0.2-0.4,0.2h-0.3l-0.6-6.2l-0.6-0.2
			v-0.3c0.2-0.1,0.4-0.1,0.6-0.2c0.2,0,0.4,0,0.6,0c0.2,0,0.4,0,0.6,0.1L104.6,60.6L104.6,60.6z"/>
            <path class="st3" d="M111.3,55.7H111c-0.3,0-0.6,0.1-0.8,0.2c-0.3,0.2-0.5,0.4-0.7,0.7c-0.2,0.3-0.3,0.7-0.4,1.1
			c-0.1,0.5-0.2,1-0.2,1.5c0,0.3,0,0.5,0.1,0.8c0,0.2,0.1,0.4,0.2,0.5c0.1,0.1,0.1,0.2,0.2,0.3c0.1,0.1,0.2,0.1,0.2,0.1
			c0.2,0,0.3-0.1,0.5-0.2c0.2-0.1,0.4-0.3,0.5-0.5c0.2-0.3,0.3-0.6,0.4-0.9c0.1-0.4,0.3-0.8,0.3-1.2l0.4-2.3
			C111.6,55.8,111.5,55.7,111.3,55.7L111.3,55.7z M112.3,58.2c0,0.2-0.1,0.5-0.1,0.7s-0.1,0.5-0.1,0.7s0,0.4,0,0.5
			c0,0.2,0,0.4,0,0.5c0,0.1,0.1,0.2,0.1,0.3c0.1,0.1,0.1,0.1,0.2,0.2c0.1,0,0.2,0.1,0.3,0.1v0.3c-0.2,0.1-0.4,0.1-0.6,0.2
			c-0.2,0-0.4,0-0.6,0c-0.1,0-0.2,0-0.3,0c-0.1,0-0.2,0-0.3-0.1l0.3-2l0,0c-0.1,0.3-0.3,0.6-0.4,0.9c-0.2,0.3-0.3,0.5-0.6,0.7
			c-0.2,0.2-0.4,0.3-0.6,0.4c-0.2,0.1-0.4,0.1-0.6,0.2c-0.2,0-0.3-0.1-0.4-0.2c-0.2-0.1-0.3-0.3-0.4-0.5c-0.1-0.2-0.2-0.5-0.3-0.8
			c-0.1-0.3-0.1-0.7-0.1-1c0-0.6,0.1-1.3,0.3-1.9c0.2-0.5,0.4-1,0.8-1.4c0.3-0.4,0.7-0.7,1.1-0.9c0.4-0.2,0.9-0.3,1.3-0.3h0.4l0.4,0
			l0.4,0.1c0.1,0,0.2,0,0.4,0.1l-0.5,2.4C112.4,57.8,112.3,58,112.3,58.2L112.3,58.2z"/>
            <path class="st3" d="M118.8,56.5c0,0.1,0,0.3-0.1,0.4c0,0.2-0.1,0.3-0.1,0.5c0,0.2,0,0.3-0.1,0.5l-0.2,1.5c0,0.1,0,0.2,0,0.3V60
			c0,0.1,0,0.2,0,0.3c0,0.1,0,0.2,0,0.3c0,0.2,0,0.4,0.2,0.5c0.1,0.1,0.3,0.2,0.5,0.2v0.2c-0.2,0.1-0.3,0.2-0.5,0.2
			c-0.2,0-0.4,0.1-0.6,0.1c-0.2,0-0.4,0-0.5-0.2c-0.1-0.1-0.2-0.3-0.2-0.5c0-0.1,0-0.2,0-0.3s0-0.2,0-0.4s0-0.3,0.1-0.4
			s0-0.3,0.1-0.4l0.3-1.6c0-0.1,0-0.2,0.1-0.3v-0.4c0-0.1,0-0.2,0-0.4c0-0.1,0-0.2,0-0.3c0-0.1,0-0.3,0-0.4c0-0.1-0.1-0.2-0.1-0.3
			c-0.1-0.1-0.1-0.1-0.2-0.1c-0.1,0-0.2,0-0.2,0c-0.2,0-0.4,0.1-0.6,0.3c-0.2,0.2-0.4,0.5-0.6,0.7c-0.2,0.3-0.4,0.7-0.5,1.1
			c-0.1,0.4-0.2,0.9-0.2,1.4l-0.1,2.3h-1.2l0.7-5.9l-0.8-0.3v-0.3c0.2-0.1,0.4-0.1,0.7-0.2c0.2,0,0.5-0.1,0.7,0h0.3
			c0.1,0,0.2,0,0.3,0.1l-0.4,2.1l0,0c0.1-0.3,0.3-0.6,0.5-0.9c0.2-0.3,0.4-0.5,0.6-0.7c0.2-0.2,0.4-0.3,0.7-0.4
			c0.2-0.1,0.5-0.1,0.7-0.2c0.1,0,0.3,0,0.4,0.1c0.1,0.1,0.2,0.1,0.3,0.2c0.1,0.1,0.2,0.3,0.2,0.4c0.1,0.2,0.1,0.4,0.1,0.5
			C118.8,56.3,118.8,56.4,118.8,56.5L118.8,56.5z"/>
            <path class="st3" d="M124.3,61.2v0.3c-0.2,0.1-0.4,0.1-0.6,0.2c-0.2,0-0.4,0.1-0.7,0c-0.2,0-0.4,0-0.6,0c-0.2,0-0.3-0.1-0.5-0.1
			v-0.2c0.1-0.1,0.2-0.1,0.3-0.2c0.1-0.1,0.2-0.2,0.2-0.4l0.8-7.2l-0.8-0.2V53c0.2-0.1,0.4-0.1,0.6-0.2c0.2,0,0.4,0,0.7,0h0.6
			c0.2,0,0.3,0.1,0.5,0.1v0.2c-0.1,0-0.2,0.1-0.3,0.2c-0.1,0.1-0.1,0.2-0.2,0.4l-0.9,7.2L124.3,61.2L124.3,61.2z"/>
            <path class="st3" d="M130.6,56.5c0,0.1,0,0.3-0.1,0.4c0,0.2-0.1,0.3-0.1,0.5c0,0.2,0,0.3-0.1,0.5l-0.2,1.5c0,0.1,0,0.2,0,0.3
			s0,0.2,0,0.3c0,0.1,0,0.2,0,0.3c0,0.1,0,0.2,0,0.3c0,0.2,0,0.4,0.2,0.5c0.1,0.1,0.3,0.2,0.5,0.2v0.2c-0.2,0.1-0.3,0.2-0.5,0.2
			c-0.2,0-0.4,0.1-0.6,0.1c-0.2,0-0.4,0-0.5-0.2c-0.1-0.1-0.2-0.3-0.2-0.5c0-0.1,0-0.2,0-0.3s0-0.2,0-0.4s0-0.3,0.1-0.4
			s0-0.3,0.1-0.4l0.3-1.6c0-0.1,0-0.2,0.1-0.3v-0.4c0-0.1,0-0.2,0-0.4c0-0.1,0-0.2,0-0.3c0-0.1,0-0.3,0-0.4c0-0.1-0.1-0.2-0.1-0.3
			c-0.1-0.1-0.1-0.1-0.2-0.1c-0.1,0-0.2,0-0.2,0c-0.2,0-0.4,0.1-0.6,0.3c-0.2,0.2-0.4,0.5-0.6,0.7c-0.2,0.3-0.4,0.7-0.5,1.1
			c-0.1,0.4-0.2,0.9-0.2,1.4l-0.1,2.3h-1.2l0.7-5.9l-0.8-0.3v-0.3c0.2-0.1,0.4-0.1,0.7-0.2c0.2,0,0.5-0.1,0.7,0h0.3
			c0.1,0,0.2,0,0.3,0.1l-0.4,2.1l0,0c0.1-0.3,0.3-0.6,0.5-0.9c0.2-0.3,0.4-0.5,0.6-0.7c0.2-0.2,0.4-0.3,0.7-0.4
			c0.2-0.1,0.5-0.1,0.7-0.2c0.1,0,0.3,0,0.4,0.1c0.1,0.1,0.2,0.1,0.3,0.2c0.1,0.1,0.2,0.3,0.2,0.4c0.1,0.2,0.1,0.4,0.1,0.5
			C130.6,56.3,130.6,56.4,130.6,56.5L130.6,56.5z"/>
            <path class="st3" d="M136.7,52.6c0,0.1-0.1,0.2-0.1,0.3c-0.2-0.1-0.5-0.2-0.7-0.3c-0.2-0.1-0.5-0.1-0.8-0.1c-0.2,0-0.3,0-0.5,0.1
			c-0.2,0.1-0.3,0.2-0.4,0.3c-0.1,0.1-0.2,0.3-0.3,0.4c-0.1,0.2-0.1,0.4-0.1,0.6l-0.1,1.3h1.1c0.2,0,0.4,0,0.6,0c0,0.1,0,0.2,0,0.4
			c0,0.1-0.1,0.2-0.1,0.2c-0.1,0.1-0.2,0.1-0.3,0.2c-0.2,0-0.4,0-0.6,0h-0.7l-0.8,7.2c0,0.3-0.1,0.6-0.2,0.8
			c-0.1,0.2-0.2,0.4-0.3,0.6c-0.1,0.1-0.2,0.2-0.4,0.3c-0.1,0.1-0.3,0.1-0.5,0.1c-0.2,0-0.3,0-0.5-0.1c-0.1,0-0.3-0.1-0.4-0.2v-0.2
			c0.3-0.1,0.6-0.2,0.8-0.4c0.2-0.2,0.3-0.5,0.4-0.8l0.8-7.2h-0.7c0-0.1,0-0.2,0.1-0.3c0-0.1,0.1-0.2,0.2-0.2
			c0.1-0.1,0.2-0.1,0.2-0.2c0.1,0,0.2-0.1,0.3-0.1l0.1-1.2c0-0.3,0.1-0.7,0.3-1c0.1-0.3,0.3-0.5,0.6-0.7c0.2-0.2,0.5-0.4,0.8-0.5
			c0.3-0.1,0.6-0.2,0.9-0.2c0.3,0,0.5,0,0.8,0c0.2,0,0.3,0,0.4,0.1c0.1,0,0.2,0.1,0.2,0.2c0,0.1,0.1,0.2,0.1,0.2
			C136.8,52.4,136.8,52.5,136.7,52.6L136.7,52.6z"/>
            <path class="st3" d="M135.2,55.2c0.2-0.1,0.4-0.1,0.6-0.2c0.2,0,0.5-0.1,0.7,0h0.3c0.1,0,0.2,0,0.3,0.1l-0.4,2l0,0l0.7-1.2
			c0.1-0.2,0.3-0.5,0.6-0.7c0.2-0.1,0.4-0.2,0.6-0.2c0.1,0,0.3,0,0.3,0.1c0.1,0.1,0.1,0.2,0.1,0.4c0,0.1,0,0.2,0,0.4
			c0,0.1-0.1,0.2-0.1,0.4c-0.1,0-0.1,0-0.2,0h-0.2c-0.2,0-0.5,0.1-0.6,0.2c-0.2,0.2-0.4,0.4-0.6,0.6c-0.2,0.3-0.3,0.7-0.4,1.1
			c-0.1,0.5-0.2,1.1-0.2,1.6l-0.1,2h-1.1l0.7-5.9l-0.8-0.3L135.2,55.2L135.2,55.2z"/>
            <path class="st3" d="M142.6,55.7h-0.4c-0.3,0-0.6,0.1-0.8,0.2c-0.3,0.2-0.5,0.4-0.7,0.7c-0.2,0.3-0.3,0.7-0.4,1.1
			c-0.1,0.5-0.2,1-0.2,1.5c0,0.3,0,0.5,0.1,0.8c0,0.2,0.1,0.4,0.1,0.5c0.1,0.1,0.1,0.2,0.2,0.3c0.1,0.1,0.2,0.1,0.2,0.1
			c0.2,0,0.3-0.1,0.5-0.2c0.2-0.1,0.4-0.3,0.5-0.5c0.2-0.3,0.3-0.6,0.4-0.9c0.1-0.4,0.3-0.8,0.3-1.2l0.4-2.3
			C142.9,55.8,142.8,55.7,142.6,55.7L142.6,55.7z M143.6,58.2c0,0.2-0.1,0.5-0.1,0.7s-0.1,0.5-0.1,0.7s0,0.4,0,0.5s0,0.4,0,0.5
			c0,0.1,0.1,0.2,0.1,0.3c0.1,0.1,0.1,0.1,0.2,0.2c0.1,0,0.2,0.1,0.3,0.1v0.3c-0.2,0.1-0.4,0.1-0.6,0.2c-0.2,0-0.4,0-0.6,0
			c-0.1,0-0.2,0-0.3,0c-0.1,0-0.2,0-0.3-0.1l0.3-2l0,0c-0.1,0.3-0.3,0.6-0.4,0.9c-0.2,0.3-0.3,0.5-0.6,0.7c-0.2,0.2-0.4,0.3-0.6,0.4
			c-0.2,0.1-0.4,0.1-0.6,0.2c-0.2,0-0.3-0.1-0.4-0.2c-0.2-0.1-0.3-0.3-0.4-0.5c-0.1-0.2-0.2-0.5-0.3-0.8c-0.1-0.3-0.1-0.7-0.1-1
			c0-0.6,0.1-1.3,0.3-1.9c0.2-0.5,0.4-1,0.8-1.4c0.3-0.4,0.7-0.7,1.1-0.9c0.4-0.2,0.9-0.3,1.3-0.3h0.3l0.4,0l0.4,0.1
			c0.1,0,0.2,0,0.4,0.1l-0.5,2.4C143.7,57.8,143.6,58,143.6,58.2L143.6,58.2z"/>
            <path class="st3" d="M148.7,56c0,0.1-0.1,0.2-0.2,0.3c-0.2-0.2-0.4-0.4-0.7-0.5c-0.2-0.1-0.5-0.2-0.8-0.2c-0.3,0-0.5,0.1-0.7,0.2
			c-0.2,0.1-0.2,0.3-0.2,0.5c0,0.1,0,0.2,0,0.3c0,0.1,0.1,0.2,0.1,0.3c0.1,0.1,0.2,0.2,0.3,0.3l0.4,0.4l0.5,0.5l0.4,0.4
			c0.1,0.1,0.2,0.2,0.3,0.4c0.1,0.1,0.1,0.2,0.1,0.4c0,0.1,0,0.3,0,0.4c0,0.3-0.1,0.5-0.2,0.8c-0.1,0.3-0.3,0.5-0.5,0.7
			c-0.5,0.4-1.2,0.6-1.8,0.6c-0.3,0-0.7,0-0.9-0.2c-0.2-0.1-0.3-0.4-0.3-0.6c0-0.1,0-0.2,0.1-0.3c0-0.1,0.1-0.2,0.1-0.3
			c0.2,0.2,0.4,0.3,0.6,0.4c0.2,0.1,0.5,0.1,0.7,0.2c0.2,0,0.3,0,0.4-0.1c0.1,0,0.3-0.1,0.4-0.2c0.1-0.1,0.2-0.2,0.2-0.3
			c0.1-0.1,0.1-0.3,0.1-0.4c0-0.1,0-0.2,0-0.3c0-0.1-0.1-0.2-0.1-0.3c-0.1-0.1-0.2-0.2-0.3-0.3c-0.1-0.1-0.3-0.3-0.4-0.4l-0.5-0.4
			l-0.4-0.4c-0.1-0.1-0.2-0.2-0.2-0.4c-0.1-0.1-0.1-0.2-0.1-0.4c0-0.1,0-0.3,0-0.4c0-0.2,0.1-0.5,0.2-0.7c0.1-0.2,0.3-0.4,0.4-0.6
			c0.2-0.2,0.4-0.3,0.7-0.4c0.3-0.1,0.6-0.2,0.9-0.2c0.4,0,0.8,0.1,1.1,0.2c0.2,0.1,0.4,0.3,0.4,0.5C148.8,55.8,148.7,55.9,148.7,56
			L148.7,56z"/>
            <path class="st3" d="M152.5,55.7c-0.3,0.2-0.6,0.2-0.9,0.2h-0.4l-0.2,1.4c0,0.2-0.1,0.4-0.1,0.6l-0.1,0.6c0,0.2-0.1,0.4-0.1,0.6
			c0,0.2,0,0.3,0,0.5c0,0.2,0,0.4,0.1,0.6c0,0.1,0.1,0.3,0.2,0.4c0.1,0.1,0.2,0.2,0.3,0.2c0.1,0,0.3,0.1,0.4,0.1c0.1,0,0.2,0,0.3,0
			l0.3-0.1v0.2c0,0.1-0.1,0.2-0.1,0.2c-0.1,0.1-0.2,0.2-0.3,0.2c-0.1,0.1-0.2,0.1-0.4,0.2c-0.1,0-0.3,0.1-0.4,0
			c-0.4,0-0.8-0.1-1-0.4c-0.2-0.4-0.4-0.8-0.3-1.2c0-0.2,0-0.5,0-0.7c0-0.3,0.1-0.6,0.1-0.9s0.1-0.6,0.1-0.9s0.1-0.6,0.2-0.8
			l0.2-0.9c-0.1,0-0.3,0-0.4,0h-0.4v-0.2c0.2-0.3,0.5-0.6,0.8-0.9c0.3-0.3,0.6-0.5,1-0.8h0.2l-0.2,1.1h0.4h0.5c0.2,0,0.3,0,0.5-0.1
			C152.9,55.4,152.7,55.6,152.5,55.7L152.5,55.7z"/>
            <path class="st3" d="M153,55.2c0.2-0.1,0.4-0.1,0.6-0.2c0.2,0,0.5-0.1,0.7,0h0.3c0.1,0,0.2,0,0.3,0.1l-0.4,2l0,0l0.7-1.2
			c0.1-0.2,0.3-0.5,0.6-0.7c0.2-0.1,0.4-0.2,0.6-0.2c0.1,0,0.3,0,0.3,0.1c0.1,0.1,0.1,0.2,0.1,0.4c0,0.1,0,0.2,0,0.4
			c0,0.1-0.1,0.2-0.1,0.4c-0.1,0-0.1,0-0.2,0h-0.2c-0.2,0-0.4,0.1-0.6,0.2c-0.2,0.2-0.4,0.4-0.6,0.6c-0.2,0.3-0.3,0.7-0.4,1.1
			c-0.1,0.5-0.2,1.1-0.2,1.6l-0.1,2h-1.1l0.7-5.9l-0.8-0.3L153,55.2L153,55.2z"/>
            <path class="st3" d="M157.6,55.7c-0.1-0.1-0.3-0.2-0.5-0.2v-0.2c0.2-0.1,0.3-0.1,0.5-0.2c0.2,0,0.4-0.1,0.6-0.1
			c0.2,0,0.4,0,0.5,0.2c0.1,0.1,0.2,0.3,0.2,0.5c0,0.1,0,0.3,0,0.4s0,0.3-0.1,0.5s-0.1,0.4-0.1,0.6s-0.1,0.4-0.1,0.6l-0.3,1.5
			c0,0.1,0,0.2-0.1,0.2c0,0.2,0,0.4-0.1,0.5c0,0.1,0,0.2,0,0.2c0,0.2,0,0.3,0.1,0.4c0.1,0.1,0.2,0.2,0.3,0.2c0.2,0,0.4-0.1,0.6-0.2
			c0.2-0.2,0.4-0.4,0.6-0.6c0.2-0.3,0.4-0.6,0.5-1c0.2-0.4,0.3-0.9,0.3-1.4l0.1-2.4c0.2-0.1,0.4-0.1,0.6-0.2c0.2,0,0.4,0,0.6,0
			l-0.4,2.1c0,0.2-0.1,0.5-0.1,0.8s-0.1,0.5-0.1,0.8s-0.1,0.5-0.1,0.8s0,0.5,0,0.7c0,0.2,0,0.4,0,0.5c0,0.1,0.1,0.2,0.1,0.3
			c0,0.1,0.1,0.1,0.2,0.2c0.1,0,0.2,0.1,0.3,0.1v0.3c-0.2,0.1-0.4,0.1-0.6,0.2c-0.2,0-0.4,0-0.6,0c-0.2,0-0.4,0-0.6-0.1l0.4-1.9l0,0
			c-0.1,0.2-0.3,0.5-0.5,0.7c-0.2,0.2-0.4,0.5-0.6,0.7c-0.2,0.2-0.4,0.3-0.6,0.5c-0.2,0.1-0.4,0.2-0.6,0.2c-0.1,0-0.3,0-0.4-0.1
			c-0.1-0.1-0.2-0.2-0.3-0.3c-0.1-0.1-0.2-0.3-0.2-0.4c-0.1-0.2-0.1-0.3-0.1-0.5c0-0.1,0-0.2,0-0.3V60c0-0.1,0-0.2,0.1-0.3
			c0-0.1,0-0.2,0-0.2l0.3-1.6c0-0.1,0-0.2,0.1-0.4c0-0.1,0.1-0.3,0.1-0.4c0-0.2,0-0.3,0.1-0.5c0-0.1,0-0.2,0-0.4
			c0-0.2,0-0.4-0.2-0.5L157.6,55.7z"/>
            <path class="st3" d="M166.7,56.5c-0.1-0.2-0.3-0.4-0.5-0.6c-0.2-0.1-0.4-0.2-0.7-0.2c-0.2,0-0.4,0.1-0.5,0.2
			c-0.2,0.2-0.4,0.4-0.5,0.6c-0.2,0.3-0.3,0.7-0.4,1.1c-0.1,0.5-0.2,1-0.1,1.5c0,0.3,0,0.6,0.1,0.8c0,0.2,0.1,0.4,0.2,0.6
			c0.1,0.1,0.2,0.2,0.3,0.3c0.1,0.1,0.2,0.1,0.4,0.1c0.1,0,0.3,0,0.4-0.1c0.1,0,0.3-0.1,0.4-0.2c0.1-0.1,0.2-0.2,0.3-0.3l0.3-0.3
			c0,0,0.1,0.1,0.1,0.2c0,0.1,0,0.1,0,0.2c0,0.2,0,0.3-0.1,0.5c-0.1,0.2-0.2,0.3-0.3,0.4c-0.2,0.1-0.4,0.2-0.6,0.3
			c-0.3,0.1-0.5,0.1-0.8,0.1c-0.2,0-0.5-0.1-0.7-0.2c-0.2-0.1-0.4-0.3-0.6-0.5c-0.2-0.2-0.3-0.5-0.4-0.8c-0.1-0.4-0.1-0.7-0.1-1.1
			c0-0.7,0.1-1.3,0.2-2c0.1-0.5,0.3-1,0.6-1.4c0.2-0.3,0.6-0.6,0.9-0.8c0.3-0.2,0.7-0.3,1.1-0.3c0.3,0,0.6,0,0.9,0.2
			c0.2,0.1,0.3,0.3,0.3,0.5C167,55.9,166.9,56.2,166.7,56.5L166.7,56.5z"/>
            <path class="st3" d="M170.5,55.7c-0.3,0.2-0.6,0.2-0.9,0.2h-0.4l-0.2,1.4c0,0.2-0.1,0.4-0.1,0.6l-0.1,0.6c0,0.2-0.1,0.4-0.1,0.6
			c0,0.2,0,0.3,0,0.5c0,0.2,0,0.4,0.1,0.6c0,0.1,0.1,0.3,0.2,0.4c0.1,0.1,0.2,0.2,0.3,0.2c0.1,0,0.3,0.1,0.4,0.1c0.1,0,0.2,0,0.3,0
			l0.3-0.1v0.2c0,0.1-0.1,0.2-0.1,0.2c-0.1,0.1-0.2,0.2-0.3,0.2c-0.1,0.1-0.2,0.1-0.4,0.2c-0.1,0-0.3,0.1-0.4,0
			c-0.4,0-0.8-0.1-1-0.4c-0.2-0.4-0.4-0.8-0.3-1.2c0-0.2,0-0.5,0-0.7s0.1-0.6,0.1-0.9s0.1-0.6,0.1-0.9s0.1-0.6,0.2-0.8l0.2-0.9
			c-0.1,0-0.3,0-0.4,0h-0.4v-0.2c0.2-0.3,0.5-0.6,0.8-0.9c0.3-0.3,0.6-0.5,1-0.8h0.2l-0.2,1.1h0.4h0.5c0.2,0,0.3,0,0.5-0.1
			C170.8,55.4,170.7,55.6,170.5,55.7L170.5,55.7z"/>
            <path class="st3" d="M171.7,55.7c-0.1-0.1-0.3-0.2-0.5-0.2v-0.2c0.2-0.1,0.3-0.1,0.5-0.2c0.2,0,0.4-0.1,0.6-0.1
			c0.2,0,0.4,0,0.5,0.2c0.1,0.1,0.2,0.3,0.2,0.5c0,0.1,0,0.3,0,0.4s0,0.3-0.1,0.5s-0.1,0.4-0.1,0.6s-0.1,0.4-0.1,0.6l-0.3,1.5
			c0,0.1,0,0.2-0.1,0.2c0,0.2,0,0.4-0.1,0.5c0,0.1,0,0.2,0,0.2c0,0.2,0,0.3,0.1,0.4c0.1,0.1,0.2,0.2,0.3,0.2c0.2,0,0.4-0.1,0.6-0.2
			c0.2-0.2,0.4-0.4,0.6-0.6c0.2-0.3,0.4-0.6,0.5-1c0.2-0.4,0.3-0.9,0.3-1.4l0.1-2.4c0.2-0.1,0.4-0.1,0.6-0.2c0.2,0,0.4-0.1,0.6-0.1
			l-0.4,2.1c0,0.2-0.1,0.5-0.1,0.8s-0.1,0.5-0.1,0.8s-0.1,0.5-0.1,0.8s0,0.5,0,0.7c0,0.2,0,0.4,0,0.5c0,0.1,0.1,0.2,0.1,0.3
			c0,0.1,0.1,0.1,0.2,0.2c0.1,0,0.2,0.1,0.3,0.1v0.3c-0.2,0.1-0.4,0.1-0.6,0.2c-0.2,0-0.4,0-0.6,0c-0.2,0-0.4,0-0.6-0.1l0.4-1.9l0,0
			c-0.1,0.2-0.3,0.5-0.5,0.7c-0.2,0.2-0.4,0.5-0.6,0.7c-0.2,0.2-0.4,0.3-0.6,0.5c-0.2,0.1-0.4,0.2-0.6,0.2c-0.1,0-0.3,0-0.4-0.1
			c-0.1-0.1-0.2-0.2-0.3-0.3c-0.1-0.1-0.2-0.3-0.2-0.4c-0.1-0.2-0.1-0.3-0.1-0.5c0-0.1,0-0.2,0-0.3V60c0-0.1,0-0.2,0.1-0.3v-0.2
			l0.3-1.6c0-0.1,0-0.2,0.1-0.4c0-0.1,0.1-0.3,0.1-0.4c0-0.2,0-0.3,0.1-0.5c0-0.1,0-0.2,0-0.4C171.8,56,171.7,55.8,171.7,55.7
			L171.7,55.7z"/>
            <path class="st3" d="M177.7,55.7c-0.1-0.1-0.3-0.2-0.5-0.2v-0.2c0.2-0.1,0.3-0.1,0.5-0.2c0.2,0,0.4-0.1,0.6-0.1
			c0.2,0,0.4,0,0.5,0.2c0.1,0.1,0.2,0.3,0.2,0.5c0,0.1,0,0.3,0,0.4s0,0.3-0.1,0.5s-0.1,0.4-0.1,0.6s-0.1,0.4-0.1,0.6l-0.3,1.5
			c0,0.1,0,0.2-0.1,0.2c0,0.2,0,0.4-0.1,0.5c0,0.1,0,0.2,0,0.2c0,0.2,0,0.3,0.1,0.4c0.1,0.1,0.2,0.2,0.3,0.2c0.2,0,0.4-0.1,0.6-0.2
			c0.2-0.2,0.4-0.4,0.6-0.6c0.2-0.3,0.4-0.6,0.5-1c0.2-0.4,0.3-0.9,0.3-1.4l0.1-2.4c0.2-0.1,0.4-0.1,0.6-0.2c0.2,0,0.4,0,0.6,0
			l-0.4,2.1c0,0.2-0.1,0.5-0.1,0.8s-0.1,0.5-0.1,0.8l-0.1,0.8c0,0.2,0,0.5,0,0.7s0,0.4,0,0.5c0,0.1,0.1,0.2,0.1,0.3
			c0,0.1,0.1,0.1,0.2,0.2c0.1,0,0.2,0.1,0.3,0.1v0.3c-0.2,0.1-0.4,0.1-0.6,0.2c-0.2,0-0.4,0-0.6,0c-0.2,0-0.4,0-0.6-0.1l0.4-1.9l0,0
			c-0.1,0.2-0.3,0.5-0.5,0.7c-0.2,0.2-0.4,0.5-0.6,0.7c-0.2,0.2-0.4,0.3-0.6,0.5c-0.2,0.1-0.4,0.2-0.6,0.2c-0.1,0-0.3,0-0.4-0.1
			c-0.1-0.1-0.2-0.2-0.3-0.3c-0.1-0.1-0.2-0.3-0.2-0.4c-0.1-0.2-0.1-0.3-0.1-0.5c0-0.1,0-0.2,0-0.3V60c0-0.1,0-0.2,0.1-0.3
			c0-0.1,0-0.2,0-0.2l0.3-1.6c0-0.1,0-0.2,0.1-0.4c0-0.1,0.1-0.3,0.1-0.4c0-0.2,0-0.3,0.1-0.5c0-0.1,0-0.2,0-0.4
			c0-0.2,0-0.4-0.2-0.5L177.7,55.7z"/>
            <path class="st3" d="M183,55.2c0.2-0.1,0.4-0.1,0.6-0.2c0.2,0,0.5-0.1,0.7,0h0.3c0.1,0,0.2,0,0.3,0.1l-0.4,2l0,0l0.7-1.2
			c0.1-0.2,0.3-0.5,0.6-0.7c0.2-0.1,0.4-0.2,0.6-0.2c0.1,0,0.3,0,0.3,0.1c0.1,0.1,0.1,0.2,0.1,0.4c0,0.1,0,0.2,0,0.4
			c0,0.1-0.1,0.2-0.1,0.4c-0.1,0-0.1,0-0.2,0h-0.2c-0.2,0-0.4,0.1-0.6,0.2c-0.2,0.2-0.4,0.4-0.6,0.6c-0.2,0.3-0.3,0.7-0.4,1.1
			c-0.1,0.5-0.2,1.1-0.2,1.6l-0.1,2h-1.1l0.7-5.9l-0.8-0.3L183,55.2L183,55.2z"/>
            <path class="st3" d="M192.2,55.8c-0.1-0.1-0.3-0.2-0.5-0.2c-0.2,0-0.4,0.1-0.5,0.2c-0.2,0.1-0.3,0.3-0.5,0.5
			c-0.2,0.3-0.3,0.5-0.4,0.8c-0.1,0.3-0.1,0.7-0.1,1.1c0.3,0,0.6,0,0.9-0.1c0.2-0.1,0.5-0.2,0.7-0.3c0.2-0.1,0.3-0.3,0.4-0.5
			c0.1-0.2,0.2-0.5,0.1-0.7C192.3,56.3,192.3,56.1,192.2,55.8L192.2,55.8z M193,60.4c0,0.1,0.1,0.1,0.1,0.2c0,0.2-0.1,0.3-0.1,0.5
			c-0.1,0.2-0.3,0.3-0.4,0.4c-0.2,0.1-0.4,0.2-0.6,0.3c-0.3,0.1-0.5,0.1-0.8,0.1c-0.3,0-0.5,0-0.8-0.1c-0.2-0.1-0.5-0.2-0.6-0.4
			c-0.2-0.2-0.3-0.5-0.4-0.8c-0.1-0.3-0.1-0.7-0.1-1.1c0-0.7,0.1-1.4,0.3-2c0.1-0.5,0.4-1,0.6-1.4c0.2-0.3,0.6-0.6,0.9-0.8
			c0.3-0.2,0.6-0.3,1-0.3c0.4,0,0.8,0.1,1.1,0.4c0.3,0.3,0.4,0.7,0.4,1.1c0,0.4-0.1,0.8-0.3,1.1c-0.2,0.3-0.4,0.6-0.7,0.8
			c-0.3,0.2-0.7,0.4-1.1,0.5c-0.4,0.1-0.8,0.2-1.2,0.2c0,0.3,0,0.7,0.1,1c0,0.2,0.1,0.4,0.2,0.6c0.1,0.1,0.2,0.3,0.4,0.3
			c0.2,0.1,0.4,0.1,0.5,0.1c0.1,0,0.3,0,0.4-0.1c0.1,0,0.3-0.1,0.4-0.1c0.1-0.1,0.3-0.1,0.4-0.2c0.1-0.1,0.2-0.2,0.3-0.3
			C192.9,60.3,192.9,60.3,193,60.4L193,60.4z"/>
            <path class="st3" d="M199.1,56.5c0,0.1,0,0.3-0.1,0.4c0,0.2-0.1,0.3-0.1,0.5c0,0.2,0,0.3-0.1,0.5l-0.2,1.5c0,0.1,0,0.2,0,0.3
			s0,0.2,0,0.3c0,0.1,0,0.2,0,0.3c0,0.1,0,0.2,0,0.3c0,0.2,0,0.4,0.2,0.5c0.1,0.1,0.3,0.2,0.5,0.2v0.2c-0.2,0.1-0.3,0.2-0.5,0.2
			c-0.2,0-0.4,0.1-0.6,0.1c-0.2,0-0.4,0-0.5-0.2c-0.1-0.1-0.2-0.3-0.2-0.5c0-0.1,0-0.2,0-0.3s0-0.2,0-0.4s0-0.3,0.1-0.4
			s0-0.3,0.1-0.4l0.3-1.6c0-0.1,0-0.2,0.1-0.3v-0.4c0-0.1,0-0.2,0-0.4c0-0.1,0-0.2,0-0.3c0-0.1,0-0.3,0-0.4c0-0.1-0.1-0.2-0.1-0.3
			c-0.1-0.1-0.1-0.1-0.2-0.1c-0.1,0-0.2,0-0.2,0c-0.2,0-0.4,0.1-0.6,0.3c-0.2,0.2-0.4,0.5-0.6,0.7c-0.2,0.3-0.4,0.7-0.5,1.1
			c-0.1,0.4-0.2,0.9-0.2,1.4l-0.1,2.3h-1.2l0.7-5.9l-0.8-0.3v-0.3c0.2-0.1,0.4-0.1,0.7-0.2c0.2,0,0.5-0.1,0.7,0h0.3
			c0.1,0,0.2,0,0.3,0l-0.4,2.1l0,0c0.1-0.3,0.3-0.6,0.5-0.9c0.2-0.3,0.4-0.5,0.6-0.7c0.2-0.2,0.4-0.3,0.7-0.4
			c0.2-0.1,0.5-0.1,0.7-0.2c0.1,0,0.3,0,0.4,0.1c0.1,0.1,0.2,0.1,0.3,0.2c0.1,0.1,0.2,0.3,0.2,0.4c0.1,0.2,0.1,0.4,0.1,0.5
			C199.1,56.3,199.1,56.4,199.1,56.5L199.1,56.5z"/>
            <path class="st3" d="M203.5,61.7c-0.2,0-0.4,0-0.6,0c-0.2,0-0.3,0-0.5,0c-0.2,0-0.3-0.1-0.4-0.1v-0.2c0.1-0.1,0.2-0.1,0.3-0.2
			c0.1-0.1,0.2-0.2,0.2-0.3l1.7-7.3l-0.7-0.2V53l0.3-0.1h0.4c0.1,0,0.3,0,0.4,0h0.8l1.2,6.5l0,0l2.3-6.5h0.6h0.4h0.3l0.3,0v0.3
			l-0.6,0.2l0.3,7.6l0.8,0.2v0.3c-0.2,0.1-0.4,0.1-0.6,0.2c-0.2,0-0.4,0.1-0.6,0c-0.3,0-0.5,0-0.7,0c-0.2,0-0.3-0.1-0.5-0.1v-0.2
			c0.1-0.1,0.2-0.1,0.3-0.2c0.1-0.1,0.1-0.3,0.1-0.5l-0.1-6.1l0,0l-2.5,7.2h-0.4l-1.3-7.2l0,0l-1.3,6.4l0.8,0.2v0.3
			C203.8,61.6,203.7,61.6,203.5,61.7L203.5,61.7z"/>
            <path class="st3" d="M214,53.1c0,0.1-0.1,0.2-0.2,0.3c-0.1,0.1-0.2,0.1-0.2,0.2c-0.1,0-0.2,0.1-0.3,0.1c-0.2,0-0.3-0.1-0.4-0.2
			c-0.1-0.1-0.2-0.3-0.2-0.5c0-0.1,0-0.2,0.1-0.3c0-0.1,0.1-0.2,0.2-0.3c0.1-0.1,0.1-0.1,0.2-0.2c0.1,0,0.2-0.1,0.3-0.1
			c0.2,0,0.3,0.1,0.4,0.2c0.1,0.1,0.2,0.3,0.2,0.5C214,52.9,214,53,214,53.1L214,53.1z M212,61.6c-0.1-0.1-0.2-0.3-0.2-0.5
			c0-0.1,0-0.2,0-0.4s0-0.3,0.1-0.5s0-0.3,0.1-0.5c0-0.2,0-0.3,0.1-0.5l0.4-2.8l0.1-0.8l-0.8-0.3v-0.3c0.4-0.2,0.9-0.2,1.4-0.2h0.3
			c0.1,0,0.2,0,0.3,0.1l-0.6,4c0,0.1,0,0.2,0,0.4s0,0.3,0,0.4c0,0.1,0,0.3,0,0.4v0.3c0,0.2,0,0.4,0.1,0.5c0.1,0.1,0.3,0.2,0.4,0.3
			v0.2c-0.1,0.1-0.3,0.1-0.5,0.1c-0.2,0-0.4,0.1-0.6,0c-0.2,0-0.4,0-0.5-0.2L212,61.6z"/>
            <path class="st3" d="M215,61.6c-0.1-0.1-0.2-0.3-0.2-0.5c0-0.1,0-0.2,0-0.4s0-0.3,0-0.5s0-0.3,0.1-0.5s0-0.3,0.1-0.5l1-6.8
			l-0.9-0.3V52c0.2-0.1,0.4-0.1,0.7-0.2c0.2,0,0.5-0.1,0.7,0h0.3l0.3,0.1l-1,7.2v0.4v0.4c0,0.1,0,0.3,0,0.4c0,0.1,0,0.2,0,0.3
			c0,0.2,0,0.4,0.2,0.5c0.1,0.1,0.3,0.2,0.4,0.3v0.2c-0.3,0.1-0.7,0.2-1.1,0.2c-0.2,0-0.4,0-0.5-0.2L215,61.6z"/>
            <path class="st3" d="M220,53.1c0,0.1-0.1,0.2-0.2,0.3c-0.1,0.1-0.2,0.1-0.2,0.2c-0.1,0-0.2,0.1-0.3,0.1c-0.2,0-0.3-0.1-0.4-0.2
			c-0.1-0.1-0.2-0.3-0.2-0.5c0-0.1,0-0.2,0.1-0.3c0-0.1,0.1-0.2,0.2-0.3c0.1-0.1,0.1-0.1,0.2-0.2c0.1,0,0.2-0.1,0.3-0.1
			c0.2,0,0.3,0.1,0.4,0.2c0.1,0.1,0.2,0.3,0.2,0.5C220,52.9,220,53,220,53.1L220,53.1z M218,61.6c-0.1-0.1-0.2-0.3-0.2-0.5
			c0-0.1,0-0.2,0-0.4s0-0.3,0.1-0.5s0-0.3,0.1-0.5c0-0.2,0-0.3,0.1-0.5l0.4-2.8l0.1-0.8l-0.8-0.3v-0.3c0.4-0.2,0.9-0.2,1.4-0.2h0.3
			c0.1,0,0.2,0,0.3,0.1l-0.6,4c0,0.1,0,0.2,0,0.4s0,0.3,0,0.4c0,0.1,0,0.3,0,0.4v0.3c0,0.2,0,0.4,0.1,0.5c0.1,0.1,0.3,0.2,0.4,0.3
			v0.2c-0.1,0.1-0.3,0.1-0.5,0.1c-0.2,0-0.4,0.1-0.6,0c-0.2,0-0.4,0-0.5-0.2L218,61.6z"/>
            <path class="st3" d="M223.7,55.8c-0.1-0.1-0.3-0.2-0.5-0.2c-0.2,0-0.4,0.1-0.5,0.2c-0.2,0.1-0.3,0.3-0.5,0.5
			c-0.2,0.3-0.3,0.5-0.4,0.8c-0.1,0.3-0.1,0.7-0.1,1.1c0.3,0,0.6,0,0.9-0.1c0.2-0.1,0.5-0.2,0.7-0.3c0.2-0.1,0.3-0.3,0.4-0.5
			c0.1-0.2,0.2-0.5,0.1-0.7C223.9,56.3,223.9,56.1,223.7,55.8L223.7,55.8z M224.6,60.4c0,0.1,0.1,0.1,0.1,0.2c0,0.2-0.1,0.3-0.1,0.5
			c-0.1,0.2-0.3,0.3-0.4,0.4c-0.2,0.1-0.4,0.2-0.6,0.3c-0.3,0.1-0.5,0.1-0.8,0.1c-0.3,0-0.5,0-0.8-0.1c-0.2-0.1-0.5-0.2-0.6-0.4
			c-0.2-0.2-0.3-0.5-0.4-0.8c-0.1-0.3-0.1-0.7-0.1-1.1c0-0.7,0.1-1.4,0.3-2c0.1-0.5,0.4-1,0.7-1.4c0.2-0.3,0.6-0.6,0.9-0.8
			c0.3-0.2,0.6-0.3,1-0.3c0.4,0,0.8,0.1,1.1,0.4c0.3,0.3,0.4,0.7,0.4,1.1c0,0.4-0.1,0.8-0.3,1.1c-0.2,0.3-0.4,0.6-0.7,0.8
			c-0.3,0.2-0.7,0.4-1.1,0.5c-0.4,0.1-0.8,0.2-1.2,0.2c0,0.3,0,0.7,0.1,1c0,0.2,0.1,0.4,0.2,0.6c0.1,0.1,0.2,0.3,0.4,0.3
			c0.2,0.1,0.4,0.2,0.6,0.2c0.1,0,0.3,0,0.4-0.1c0.1,0,0.3-0.1,0.4-0.1c0.1-0.1,0.3-0.1,0.4-0.2C224.3,60.5,224.4,60.4,224.6,60.4
			C224.5,60.3,224.6,60.4,224.6,60.4L224.6,60.4z"/>
            <path class="st3" d="M226.3,55.7c-0.1-0.1-0.3-0.2-0.5-0.2v-0.2c0.2-0.1,0.3-0.1,0.5-0.2c0.2,0,0.4-0.1,0.6-0.1
			c0.2,0,0.4,0,0.5,0.2c0.1,0.1,0.2,0.3,0.2,0.5c0,0.1,0,0.3,0,0.4s0,0.3-0.1,0.5s-0.1,0.4-0.1,0.6s-0.1,0.4-0.1,0.6l-0.3,1.5
			c0,0.1,0,0.2-0.1,0.2c0,0.2,0,0.4-0.1,0.5c0,0.1,0,0.2,0,0.2c0,0.2,0,0.3,0.1,0.4c0.1,0.1,0.2,0.2,0.3,0.2c0.2,0,0.4-0.1,0.6-0.2
			c0.2-0.2,0.4-0.4,0.6-0.6c0.5-0.7,0.7-1.5,0.8-2.4l0.1-2.4c0.2-0.1,0.3-0.2,0.5-0.2c0.2,0,0.4-0.1,0.6-0.1l-0.4,2.1
			c0,0.2-0.1,0.5-0.1,0.8s-0.1,0.5-0.1,0.8s-0.1,0.5-0.1,0.8s0,0.5,0,0.7c0,0.2,0,0.4,0,0.5c0,0.1,0.1,0.2,0.1,0.3
			c0,0.1,0.1,0.1,0.2,0.2c0.1,0,0.2,0.1,0.3,0.1v0.3c-0.2,0.1-0.4,0.1-0.6,0.2c-0.2,0-0.4,0-0.6,0c-0.2,0-0.4,0-0.6-0.1l0.4-1.9l0,0
			c-0.1,0.2-0.3,0.5-0.5,0.7c-0.2,0.2-0.4,0.5-0.6,0.7c-0.2,0.2-0.4,0.3-0.6,0.5c-0.2,0.1-0.4,0.2-0.6,0.2c-0.1,0-0.3,0-0.4-0.1
			c-0.1-0.1-0.2-0.2-0.3-0.3c-0.1-0.1-0.2-0.3-0.2-0.4c-0.1-0.2-0.1-0.3-0.1-0.5c0-0.1,0-0.2,0-0.3v-0.3c0-0.1,0-0.2,0.1-0.3v-0.2
			l0.3-1.6c0-0.1,0-0.2,0.1-0.4c0-0.1,0.1-0.3,0.1-0.4c0-0.2,0-0.3,0.1-0.5c0-0.1,0-0.2,0-0.4c0-0.2,0-0.4-0.2-0.5L226.3,55.7z"/>
        </g>
    </g>
</svg>
